<svg xmlns="http://www.w3.org/2000/svg" viewBox="0 0 226.77 226.77"><defs><style>.cls-1,.cls-4,.cls-5{fill:none;stroke:#1f2023;stroke-miterlimit:10;}.cls-1{stroke-width:0.6px;}.cls-2{fill:#1f2023;}.cls-3{fill:#039ce9;}.cls-4{stroke-width:0.3px;}.cls-5{stroke-width:0.15px;}</style></defs><title>overview</title><g id="Layer_2" data-name="Layer 2"><line class="cls-1" x1="124.75" y1="70.15" x2="122.83" y2="73.57"/><path class="cls-2" d="M123.57,69.49a1.35,1.35,0,1,1,2.36,1.32,1.35,1.35,0,0,1-2.36-1.32Z"/><path class="cls-2" d="M121.65,72.91a1.36,1.36,0,0,0,.52,1.84,1.35,1.35,0,1,0,1.32-2.36A1.36,1.36,0,0,0,121.65,72.91Z"/><line class="cls-1" x1="134.05" y1="69.61" x2="124.75" y2="70.15"/><path class="cls-2" d="M134,68.25a1.36,1.36,0,1,1-1.27,1.43A1.36,1.36,0,0,1,134,68.25Z"/><path class="cls-2" d="M124.67,68.8a1.35,1.35,0,1,0,1.43,1.27A1.36,1.36,0,0,0,124.67,68.8Z"/><line class="cls-1" x1="137.2" y1="81.23" x2="134.05" y2="69.61"/><path class="cls-2" d="M138.5,80.88a1.35,1.35,0,1,1-1.66-.95A1.35,1.35,0,0,1,138.5,80.88Z"/><path class="cls-2" d="M135.36,69.25a1.36,1.36,0,1,0-1,1.66A1.35,1.35,0,0,0,135.36,69.25Z"/><line class="cls-1" x1="131.04" y1="92.17" x2="137.2" y2="81.23"/><path class="cls-2" d="M132.22,92.84A1.35,1.35,0,1,1,131.7,91,1.35,1.35,0,0,1,132.22,92.84Z"/><path class="cls-2" d="M138.38,81.9A1.35,1.35,0,1,0,136,80.57a1.35,1.35,0,0,0,2.36,1.33Z"/><line class="cls-1" x1="122.7" y1="98.47" x2="131.04" y2="92.17"/><path class="cls-2" d="M123.51,99.55a1.35,1.35,0,1,1,.27-1.9A1.34,1.34,0,0,1,123.51,99.55Z"/><path class="cls-2" d="M131.86,93.25A1.35,1.35,0,1,0,130,93,1.35,1.35,0,0,0,131.86,93.25Z"/><line class="cls-1" x1="119.14" y1="97.37" x2="122.7" y2="98.47"/><path class="cls-2" d="M118.74,98.67a1.36,1.36,0,1,1,1.69-.9A1.36,1.36,0,0,1,118.74,98.67Z"/><path class="cls-2" d="M122.3,99.76a1.35,1.35,0,1,0-.9-1.69A1.35,1.35,0,0,0,122.3,99.76Z"/><line class="cls-1" x1="116.68" y1="112.28" x2="119.14" y2="97.37"/><path class="cls-2" d="M118,112.5a1.35,1.35,0,0,1-1.55,1.12,1.36,1.36,0,0,1-1.12-1.56,1.35,1.35,0,0,1,2.67.44Z"/><path class="cls-2" d="M120.48,97.59a1.36,1.36,0,1,0-1.56,1.12A1.36,1.36,0,0,0,120.48,97.59Z"/><line class="cls-1" x1="103.68" y1="124.59" x2="116.68" y2="112.28"/><path class="cls-2" d="M104.61,125.57a1.35,1.35,0,1,1,.06-1.91A1.35,1.35,0,0,1,104.61,125.57Z"/><path class="cls-3" d="M117.61,113.26a1.35,1.35,0,0,0-1.86-2,1.35,1.35,0,1,0,1.86,2Z"/><line class="cls-1" x1="82.21" y1="130.61" x2="103.68" y2="124.59"/><path class="cls-2" d="M82.57,131.91a1.35,1.35,0,1,1,.94-1.67A1.35,1.35,0,0,1,82.57,131.91Z"/><path class="cls-2" d="M104.05,125.89a1.35,1.35,0,1,0-1.67-.93A1.35,1.35,0,0,0,104.05,125.89Z"/><line class="cls-1" x1="76.87" y1="125.41" x2="82.21" y2="130.61"/><path class="cls-2" d="M75.93,126.38a1.35,1.35,0,0,1,1.89-1.94,1.35,1.35,0,0,1-1.89,1.94Z"/><path class="cls-3" d="M81.26,131.58a1.35,1.35,0,1,0,0-1.91A1.36,1.36,0,0,0,81.26,131.58Z"/><line class="cls-1" x1="79.88" y1="117.21" x2="76.87" y2="125.41"/><path class="cls-2" d="M78.61,116.74a1.35,1.35,0,1,1,2.54.93,1.35,1.35,0,0,1-1.73.81A1.37,1.37,0,0,1,78.61,116.74Z"/><path class="cls-2" d="M75.6,125a1.36,1.36,0,0,0,2.55.93,1.37,1.37,0,0,0-.81-1.74A1.35,1.35,0,0,0,75.6,125Z"/><line class="cls-1" x1="75.51" y1="110.78" x2="79.88" y2="117.21"/><path class="cls-2" d="M74.39,111.54a1.36,1.36,0,1,1,1.88.36A1.35,1.35,0,0,1,74.39,111.54Z"/><path class="cls-2" d="M78.76,118a1.37,1.37,0,0,0,1.89.35,1.35,1.35,0,1,0-1.89-.35Z"/><line class="cls-1" x1="77.01" y1="107.49" x2="75.51" y2="110.78"/><path class="cls-2" d="M75.78,106.93a1.35,1.35,0,1,1,2.46,1.13,1.35,1.35,0,0,1-2.46-1.13Z"/><path class="cls-2" d="M74.28,110.21a1.35,1.35,0,1,0,1.79-.66A1.35,1.35,0,0,0,74.28,110.21Z"/><line class="cls-1" x1="74" y1="105.44" x2="77.01" y2="107.49"/><path class="cls-2" d="M73.24,106.56a1.35,1.35,0,1,1,1.88-.36A1.35,1.35,0,0,1,73.24,106.56Z"/><path class="cls-2" d="M76.25,108.61a1.35,1.35,0,1,0,1.52-2.23,1.35,1.35,0,1,0-1.52,2.23Z"/><line class="cls-1" x1="74.14" y1="97.51" x2="74" y2="105.44"/><path class="cls-2" d="M72.79,97.49a1.35,1.35,0,1,1,1.33,1.37A1.34,1.34,0,0,1,72.79,97.49Z"/><path class="cls-2" d="M72.65,105.42A1.36,1.36,0,1,0,74,104.09,1.36,1.36,0,0,0,72.65,105.42Z"/><line class="cls-1" x1="67.57" y1="95.44" x2="74.14" y2="97.51"/><path class="cls-2" d="M67.17,96.73A1.35,1.35,0,0,1,66.28,95a1.35,1.35,0,1,1,2.58.81A1.34,1.34,0,0,1,67.17,96.73Z"/><path class="cls-2" d="M73.73,98.8a1.35,1.35,0,1,0-.88-1.7A1.35,1.35,0,0,0,73.73,98.8Z"/><line class="cls-1" x1="66.21" y1="92.14" x2="67.57" y2="95.44"/><path class="cls-2" d="M65,92.66a1.35,1.35,0,1,1,1.76.73A1.34,1.34,0,0,1,65,92.66Z"/><path class="cls-2" d="M66.32,96a1.35,1.35,0,1,0,.74-1.77A1.35,1.35,0,0,0,66.32,96Z"/><line class="cls-1" x1="71.13" y1="82.75" x2="66.21" y2="92.14"/><path class="cls-2" d="M69.93,82.12A1.36,1.36,0,1,1,70.5,84,1.37,1.37,0,0,1,69.93,82.12Z"/><path class="cls-2" d="M65,91.52A1.35,1.35,0,1,0,66.83,91,1.34,1.34,0,0,0,65,91.52Z"/><line class="cls-1" x1="74.82" y1="75.49" x2="71.13" y2="82.75"/><circle class="cls-2" cx="74.82" cy="75.49" r="1.35" transform="translate(-11.8 13.9) rotate(-9.84)"/><path class="cls-2" d="M69.93,82.14a1.35,1.35,0,1,0,1.82-.59A1.35,1.35,0,0,0,69.93,82.14Z"/><line class="cls-1" x1="72.63" y1="69.47" x2="74.82" y2="75.49"/><path class="cls-2" d="M71.36,69.93a1.36,1.36,0,1,1,1.74.81A1.35,1.35,0,0,1,71.36,69.93Z"/><path class="cls-2" d="M73.55,76a1.35,1.35,0,1,0,.81-1.74A1.37,1.37,0,0,0,73.55,76Z"/><line class="cls-1" x1="75.23" y1="61.11" x2="72.63" y2="69.47"/><path class="cls-2" d="M73.94,60.71a1.36,1.36,0,0,1,2.59.8,1.36,1.36,0,0,1-2.59-.8Z"/><path class="cls-2" d="M71.34,69.07a1.36,1.36,0,1,0,1.7-.89A1.35,1.35,0,0,0,71.34,69.07Z"/><line class="cls-1" x1="101.22" y1="135.12" x2="89.68" y2="128.52"/><path class="cls-2" d="M101.89,134a1.35,1.35,0,1,1-1.84.5A1.36,1.36,0,0,1,101.89,134Z"/><path class="cls-2" d="M90.35,127.34a1.35,1.35,0,1,0,.51,1.85A1.35,1.35,0,0,0,90.35,127.34Z"/><line class="cls-1" x1="107.38" y1="143.22" x2="101.22" y2="135.12"/><path class="cls-2" d="M108.45,142.4a1.35,1.35,0,1,1-1.89-.26A1.34,1.34,0,0,1,108.45,142.4Z"/><path class="cls-2" d="M102.3,134.3a1.36,1.36,0,1,0-.26,1.9A1.35,1.35,0,0,0,102.3,134.3Z"/><line class="cls-1" x1="111.91" y1="149.9" x2="107.38" y2="143.22"/><path class="cls-2" d="M113,149.14a1.35,1.35,0,1,1-1.88-.36A1.35,1.35,0,0,1,113,149.14Z"/><path class="cls-2" d="M108.5,142.46a1.35,1.35,0,1,0-.36,1.88A1.35,1.35,0,0,0,108.5,142.46Z"/><line class="cls-1" x1="118.78" y1="142.42" x2="111.91" y2="149.9"/><path class="cls-2" d="M117.78,141.5a1.35,1.35,0,1,1,.08,1.92A1.36,1.36,0,0,1,117.78,141.5Z"/><path class="cls-2" d="M110.92,149a1.35,1.35,0,1,0,1.91-.08A1.35,1.35,0,0,0,110.92,149Z"/><line class="cls-1" x1="131.91" y1="127.65" x2="118.78" y2="142.42"/><path class="cls-2" d="M130.89,126.75a1.36,1.36,0,1,1,.12,1.91A1.37,1.37,0,0,1,130.89,126.75Z"/><path class="cls-2" d="M117.76,141.52a1.36,1.36,0,1,0,1.91-.11A1.36,1.36,0,0,0,117.76,141.52Z"/><line class="cls-1" x1="156.76" y1="114.33" x2="131.91" y2="127.65"/><path class="cls-2" d="M156.12,113.14a1.35,1.35,0,0,1,1.83.55,1.36,1.36,0,1,1-2.39,1.28A1.35,1.35,0,0,1,156.12,113.14Z"/><path class="cls-2" d="M131.27,126.45a1.36,1.36,0,1,0,1.83.56A1.35,1.35,0,0,0,131.27,126.45Z"/><line class="cls-1" x1="154.43" y1="108.59" x2="156.76" y2="114.33"/><path class="cls-2" d="M153.18,109.1a1.35,1.35,0,1,1,1.76.74A1.35,1.35,0,0,1,153.18,109.1Z"/><path class="cls-2" d="M155.5,114.84a1.35,1.35,0,1,0,.75-1.76A1.36,1.36,0,0,0,155.5,114.84Z"/><line class="cls-1" x1="153.52" y1="93.07" x2="154.43" y2="108.59"/><path class="cls-2" d="M152.17,93.15a1.35,1.35,0,1,1,1.43,1.27A1.36,1.36,0,0,1,152.17,93.15Z"/><path class="cls-2" d="M153.08,108.67a1.35,1.35,0,1,0,1.27-1.43A1.35,1.35,0,0,0,153.08,108.67Z"/><line class="cls-1" x1="122.56" y1="84.24" x2="125.65" y2="82.6"/><path class="cls-2" d="M123.19,85.44a1.35,1.35,0,1,1,.57-1.83A1.35,1.35,0,0,1,123.19,85.44Z"/><path class="cls-2" d="M126.29,83.79a1.35,1.35,0,1,0-1.83-.56A1.35,1.35,0,0,0,126.29,83.79Z"/><line class="cls-1" x1="120.78" y1="89.16" x2="122.56" y2="84.24"/><path class="cls-2" d="M122.05,89.62a1.35,1.35,0,1,1-.81-1.73A1.35,1.35,0,0,1,122.05,89.62Z"/><path class="cls-2" d="M123.83,84.7a1.35,1.35,0,1,0-1.73.81A1.35,1.35,0,0,0,123.83,84.7Z"/><line class="cls-1" x1="123.9" y1="87.66" x2="120.78" y2="89.16"/><path class="cls-2" d="M123.31,86.44a1.36,1.36,0,1,1-.63,1.81A1.37,1.37,0,0,1,123.31,86.44Z"/><path class="cls-2" d="M120.19,88a1.35,1.35,0,1,0,1.81.63A1.35,1.35,0,0,0,120.19,88Z"/><line class="cls-1" x1="130.36" y1="88.21" x2="123.9" y2="87.66"/><path class="cls-2" d="M130.47,86.86A1.35,1.35,0,1,1,129,88.09,1.35,1.35,0,0,1,130.47,86.86Z"/><path class="cls-2" d="M124,86.31a1.35,1.35,0,1,0,1.24,1.46A1.35,1.35,0,0,0,124,86.31Z"/><line class="cls-1" x1="133.37" y1="78.36" x2="130.36" y2="88.21"/><path class="cls-2" d="M132.07,78a1.37,1.37,0,0,1,1.69-.9,1.35,1.35,0,1,1-1.69.9Z"/><path class="cls-2" d="M129.06,87.81a1.35,1.35,0,1,0,1.69-.9A1.36,1.36,0,0,0,129.06,87.81Z"/><line class="cls-1" x1="130.63" y1="72.48" x2="133.37" y2="78.36"/><path class="cls-2" d="M129.4,73.05a1.36,1.36,0,1,1,1.8.65A1.36,1.36,0,0,1,129.4,73.05Z"/><path class="cls-2" d="M132.14,78.93a1.35,1.35,0,1,0,.65-1.8A1.36,1.36,0,0,0,132.14,78.93Z"/><line class="cls-1" x1="125.65" y1="75.49" x2="130.63" y2="72.48"/><path class="cls-2" d="M126.35,76.65a1.35,1.35,0,1,1,.46-1.86A1.36,1.36,0,0,1,126.35,76.65Z"/><path class="cls-2" d="M131.33,73.64a1.35,1.35,0,1,0-1.86-.46A1.36,1.36,0,0,0,131.33,73.64Z"/><line class="cls-1" x1="125.65" y1="82.6" x2="125.65" y2="75.49"/><circle class="cls-2" cx="125.65" cy="82.6" r="1.35"/><circle class="cls-2" cx="125.65" cy="75.49" r="1.35"/><line class="cls-1" x1="128.99" y1="78.22" x2="128.99" y2="84.79"/><path class="cls-2" d="M127.64,78.22A1.35,1.35,0,1,1,129,79.58,1.34,1.34,0,0,1,127.64,78.22Z"/><path class="cls-2" d="M127.64,84.79A1.35,1.35,0,1,0,129,83.44,1.34,1.34,0,0,0,127.64,84.79Z"/><line class="cls-1" x1="125.65" y1="75.49" x2="128.99" y2="78.22"/><path class="cls-2" d="M124.79,76.53a1.35,1.35,0,1,1,1.91-.19A1.36,1.36,0,0,1,124.79,76.53Z"/><path class="cls-2" d="M128.13,79.27a1.35,1.35,0,1,0-.19-1.91A1.36,1.36,0,0,0,128.13,79.27Z"/><line class="cls-1" x1="86.18" y1="71.11" x2="75.23" y2="70.84"/><path class="cls-2" d="M86.21,69.76a1.35,1.35,0,1,1-1.39,1.32A1.35,1.35,0,0,1,86.21,69.76Z"/><path class="cls-2" d="M75.27,69.48a1.36,1.36,0,1,0,1.32,1.39A1.36,1.36,0,0,0,75.27,69.48Z"/><line class="cls-1" x1="94.25" y1="72.48" x2="86.18" y2="71.11"/><path class="cls-2" d="M94.47,71.14a1.35,1.35,0,1,1-1.56,1.11A1.35,1.35,0,0,1,94.47,71.14Z"/><path class="cls-2" d="M86.4,69.78a1.35,1.35,0,1,0,1.11,1.56A1.35,1.35,0,0,0,86.4,69.78Z"/><line class="cls-1" x1="92.33" y1="70.02" x2="94.25" y2="72.48"/><path class="cls-2" d="M91.26,70.85a1.36,1.36,0,1,1,1.9.23A1.35,1.35,0,0,1,91.26,70.85Z"/><path class="cls-3" d="M93.18,73.31a1.35,1.35,0,1,0,.23-1.9A1.36,1.36,0,0,0,93.18,73.31Z"/><line class="cls-1" x1="83.71" y1="67.42" x2="92.33" y2="70.02"/><path class="cls-2" d="M83.32,68.71a1.35,1.35,0,1,1,1.69-.9A1.34,1.34,0,0,1,83.32,68.71Z"/><path class="cls-2" d="M91.94,71.31a1.35,1.35,0,1,0-.9-1.69A1.36,1.36,0,0,0,91.94,71.31Z"/><line class="cls-1" x1="77.01" y1="65.36" x2="83.71" y2="67.42"/><path class="cls-2" d="M76.62,66.66a1.35,1.35,0,1,1,.79-2.59,1.37,1.37,0,0,1,.9,1.69A1.35,1.35,0,0,1,76.62,66.66Z"/><path class="cls-2" d="M83.32,68.71a1.35,1.35,0,1,0-.9-1.69A1.35,1.35,0,0,0,83.32,68.71Z"/><line class="cls-1" x1="75.23" y1="70.84" x2="77.01" y2="65.36"/><path class="cls-2" d="M76.52,71.25a1.35,1.35,0,1,1-.87-1.7A1.35,1.35,0,0,1,76.52,71.25Z"/><path class="cls-2" d="M78.3,65.78a1.35,1.35,0,0,0-.87-1.7,1.36,1.36,0,0,0-1.71.87,1.36,1.36,0,0,0,2.58.83Z"/><line class="cls-1" x1="81.25" y1="72.48" x2="75.23" y2="70.84"/><path class="cls-2" d="M81.61,71.17a1.35,1.35,0,0,1-.71,2.61,1.35,1.35,0,1,1,.71-2.61Z"/><path class="cls-2" d="M75.59,69.53a1.35,1.35,0,1,0,1,1.66A1.35,1.35,0,0,0,75.59,69.53Z"/><line class="cls-1" x1="89.68" y1="74.39" x2="81.25" y2="72.48"/><path class="cls-2" d="M90,73.07a1.35,1.35,0,1,1-1.62,1A1.35,1.35,0,0,1,90,73.07Z"/><path class="cls-2" d="M81.55,71.16a1.35,1.35,0,1,0,1,1.62A1.35,1.35,0,0,0,81.55,71.16Z"/><line class="cls-1" x1="81.8" y1="78.36" x2="89.68" y2="74.39"/><path class="cls-2" d="M82.41,79.57a1.36,1.36,0,1,1,.6-1.82A1.36,1.36,0,0,1,82.41,79.57Z"/><path class="cls-2" d="M90.29,75.6a1.35,1.35,0,0,0,.6-1.82A1.36,1.36,0,0,0,88.47,75,1.35,1.35,0,0,0,90.29,75.6Z"/><line class="cls-1" x1="83.13" y1="83.01" x2="81.8" y2="78.36"/><path class="cls-2" d="M84.43,82.64a1.35,1.35,0,1,1-1.67-.93A1.34,1.34,0,0,1,84.43,82.64Z"/><path class="cls-2" d="M83.1,78a1.35,1.35,0,1,0-.93,1.67A1.35,1.35,0,0,0,83.1,78Z"/><line class="cls-1" x1="79.47" y1="90.53" x2="83.13" y2="83.01"/><path class="cls-2" d="M80.69,91.12a1.35,1.35,0,1,1-.63-1.8A1.33,1.33,0,0,1,80.69,91.12Z"/><path class="cls-2" d="M84.35,83.6a1.36,1.36,0,1,0-2.44-1.18,1.35,1.35,0,0,0,.63,1.81A1.37,1.37,0,0,0,84.35,83.6Z"/><line class="cls-1" x1="81.3" y1="99.56" x2="79.47" y2="90.53"/><path class="cls-2" d="M82.63,99.29A1.36,1.36,0,1,1,81,98.23,1.36,1.36,0,0,1,82.63,99.29Z"/><path class="cls-2" d="M80.8,90.26a1.35,1.35,0,1,0-1.06,1.6A1.35,1.35,0,0,0,80.8,90.26Z"/><line class="cls-1" x1="86.45" y1="109.82" x2="81.3" y2="99.56"/><path class="cls-2" d="M87.66,109.21a1.36,1.36,0,1,1-2.42,1.22,1.36,1.36,0,0,1,2.42-1.22Z"/><path class="cls-2" d="M82.51,99a1.36,1.36,0,1,0-2.42,1.22A1.36,1.36,0,0,0,82.51,99Z"/><line class="cls-1" x1="85.63" y1="115.7" x2="86.45" y2="109.82"/><path class="cls-2" d="M87,115.89a1.35,1.35,0,1,1-1.15-1.53A1.35,1.35,0,0,1,87,115.89Z"/><path class="cls-2" d="M87.79,110a1.35,1.35,0,1,0-1.53,1.15A1.35,1.35,0,0,0,87.79,110Z"/><line class="cls-1" x1="76.05" y1="90.26" x2="72.36" y2="90.26"/><path class="cls-2" d="M76.05,88.91a1.35,1.35,0,1,1-1.35,1.35A1.35,1.35,0,0,1,76.05,88.91Z"/><path class="cls-2" d="M72.36,88.91a1.35,1.35,0,1,0,1.35,1.35A1.34,1.34,0,0,0,72.36,88.91Z"/><line class="cls-1" x1="80.1" y1="93.63" x2="76.05" y2="90.26"/><path class="cls-2" d="M81,92.6a1.35,1.35,0,1,1-1.91.17A1.35,1.35,0,0,1,81,92.6Z"/><path class="cls-2" d="M76.92,89.22a1.35,1.35,0,1,0,.17,1.91A1.36,1.36,0,0,0,76.92,89.22Z"/><line class="cls-1" x1="76.74" y1="95.93" x2="80.1" y2="93.63"/><path class="cls-2" d="M77.5,97A1.35,1.35,0,1,1,76,94.81,1.35,1.35,0,1,1,77.5,97Z"/><path class="cls-2" d="M80.86,94.75A1.35,1.35,0,1,0,79,94.4,1.35,1.35,0,0,0,80.86,94.75Z"/><line class="cls-1" x1="72.09" y1="94.27" x2="76.74" y2="95.93"/><path class="cls-2" d="M71.63,95.55a1.35,1.35,0,1,1,1.73-.82A1.36,1.36,0,0,1,71.63,95.55Z"/><path class="cls-2" d="M76.28,97.2a1.35,1.35,0,1,0-.82-1.73A1.36,1.36,0,0,0,76.28,97.2Z"/><line class="cls-1" x1="67.57" y1="95.44" x2="72.09" y2="94.27"/><path class="cls-2" d="M67.91,96.75a1.35,1.35,0,0,1-1.65-1,1.35,1.35,0,0,1,2.62-.68A1.34,1.34,0,0,1,67.91,96.75Z"/><path class="cls-2" d="M72.43,95.58a1.35,1.35,0,1,0-1.65-1A1.36,1.36,0,0,0,72.43,95.58Z"/><line class="cls-1" x1="84.25" y1="105.44" x2="77.01" y2="107.49"/><path class="cls-2" d="M83.88,104.14a1.35,1.35,0,1,1-.93,1.67A1.35,1.35,0,0,1,83.88,104.14Z"/><path class="cls-2" d="M76.64,106.19a1.36,1.36,0,1,0,1.67.93A1.36,1.36,0,0,0,76.64,106.19Z"/><line class="cls-1" x1="77.15" y1="103.7" x2="84.25" y2="105.44"/><path class="cls-2" d="M76.83,105a1.35,1.35,0,1,1,1.63-1A1.35,1.35,0,0,1,76.83,105Z"/><path class="cls-2" d="M83.93,106.76a1.35,1.35,0,0,0,.65-2.63,1.35,1.35,0,1,0-.65,2.63Z"/><line class="cls-1" x1="74" y1="105.44" x2="77.15" y2="103.7"/><path class="cls-2" d="M74.66,106.63a1.35,1.35,0,1,1,.53-1.84A1.36,1.36,0,0,1,74.66,106.63Z"/><path class="cls-2" d="M77.8,104.88a1.35,1.35,0,1,0-1.84-.52A1.35,1.35,0,0,0,77.8,104.88Z"/><line class="cls-1" x1="80.98" y1="109.41" x2="84.25" y2="105.44"/><path class="cls-2" d="M82,110.27a1.35,1.35,0,0,1-2.09-1.72A1.35,1.35,0,1,1,82,110.27Z"/><path class="cls-2" d="M85.3,106.3a1.35,1.35,0,1,0-1.91.19A1.35,1.35,0,0,0,85.3,106.3Z"/><line class="cls-1" x1="75.51" y1="110.78" x2="80.98" y2="109.41"/><path class="cls-2" d="M75.84,112.09a1.36,1.36,0,1,1,1-1.64A1.36,1.36,0,0,1,75.84,112.09Z"/><path class="cls-2" d="M81.31,110.72a1.35,1.35,0,1,0-1.65-1A1.37,1.37,0,0,0,81.31,110.72Z"/><line class="cls-1" x1="158.46" y1="112.69" x2="156.76" y2="114.33"/><path class="cls-3" d="M157.51,111.72a1.36,1.36,0,1,1,0,1.91A1.36,1.36,0,0,1,157.51,111.72Z"/><path class="cls-2" d="M155.82,113.36a1.35,1.35,0,1,0,1.88,2,1.37,1.37,0,0,0,0-1.92A1.35,1.35,0,0,0,155.82,113.36Z"/><line class="cls-1" x1="159.45" y1="128.19" x2="167.29" y2="124.55"/><path class="cls-2" d="M160,129.42a1.35,1.35,0,1,1,.65-1.8A1.35,1.35,0,0,1,160,129.42Z"/><path class="cls-2" d="M167.86,125.77a1.35,1.35,0,1,0-1.8-.65A1.34,1.34,0,0,0,167.86,125.77Z"/><line class="cls-1" x1="143.76" y1="136.22" x2="159.45" y2="128.19"/><path class="cls-2" d="M144.38,137.42a1.36,1.36,0,0,1-1.24-2.41,1.36,1.36,0,1,1,1.24,2.41Z"/><path class="cls-2" d="M160.06,129.4a1.35,1.35,0,1,0-1.82-.59A1.35,1.35,0,0,0,160.06,129.4Z"/><line class="cls-1" x1="121.51" y1="153.36" x2="143.76" y2="136.22"/><path class="cls-2" d="M122.34,154.43a1.35,1.35,0,1,1-1.65-2.14,1.35,1.35,0,0,1,1.65,2.14Z"/><path class="cls-2" d="M144.59,137.29a1.35,1.35,0,1,0-1.9-.25A1.35,1.35,0,0,0,144.59,137.29Z"/><line class="cls-1" x1="108.06" y1="180.23" x2="121.51" y2="153.36"/><path class="cls-2" d="M109.27,180.84a1.34,1.34,0,0,1-1.81.6,1.35,1.35,0,1,1,1.81-.6Z"/><path class="cls-3" d="M122.72,154a1.35,1.35,0,1,0-1.81.6A1.35,1.35,0,0,0,122.72,154Z"/><line class="cls-1" x1="104.12" y1="156.25" x2="108.06" y2="180.23"/><path class="cls-2" d="M102.79,156.47a1.35,1.35,0,1,1,1.55,1.11A1.34,1.34,0,0,1,102.79,156.47Z"/><path class="cls-2" d="M106.73,180.45a1.35,1.35,0,1,0,1.11-1.55A1.35,1.35,0,0,0,106.73,180.45Z"/><line class="cls-1" x1="111.91" y1="149.9" x2="104.12" y2="156.25"/><path class="cls-2" d="M111.06,148.85a1.35,1.35,0,1,1-.19,1.9A1.34,1.34,0,0,1,111.06,148.85Z"/><path class="cls-2" d="M103.27,155.2a1.35,1.35,0,1,0,1.9.19A1.34,1.34,0,0,0,103.27,155.2Z"/><line class="cls-1" x1="173.03" y1="69.33" x2="173.03" y2="73.57"/><circle class="cls-2" cx="173.03" cy="69.33" r="1.35"/><circle class="cls-2" cx="173.03" cy="73.57" r="1.35"/><line class="cls-1" x1="168.93" y1="67.42" x2="173.03" y2="69.33"/><path class="cls-2" d="M168.36,68.64a1.35,1.35,0,1,1,1.8-.65A1.36,1.36,0,0,1,168.36,68.64Z"/><path class="cls-2" d="M172.46,70.56a1.36,1.36,0,1,0-.65-1.8A1.36,1.36,0,0,0,172.46,70.56Z"/><line class="cls-1" x1="170.31" y1="55.48" x2="168.93" y2="67.42"/><path class="cls-2" d="M169,55.32a1.35,1.35,0,0,1,2.69.31,1.35,1.35,0,1,1-2.69-.31Z"/><path class="cls-2" d="M167.58,67.26a1.35,1.35,0,1,0,1.5-1.19A1.36,1.36,0,0,0,167.58,67.26Z"/><line class="cls-4" x1="168.66" y1="41.43" x2="170.31" y2="55.48"/><path class="cls-2" d="M168,41.51a.68.68,0,0,1,.6-.75.67.67,0,1,1,.15,1.34A.68.68,0,0,1,168,41.51Z"/><path class="cls-2" d="M169.63,55.56a.68.68,0,1,0,.6-.75A.68.68,0,0,0,169.63,55.56Z"/><line class="cls-4" x1="153.52" y1="19.79" x2="163.07" y2="29.94"/><path class="cls-2" d="M153,20.25a.67.67,0,1,1,.95,0A.66.66,0,0,1,153,20.25Z"/><path class="cls-2" d="M162.57,30.4a.68.68,0,1,0,0-.95A.68.68,0,0,0,162.57,30.4Z"/><line class="cls-1" x1="140.65" y1="12.02" x2="153.52" y2="19.79"/><path class="cls-2" d="M140,13.18a1.35,1.35,0,1,1,1.86-.46A1.36,1.36,0,0,1,140,13.18Z"/><path class="cls-2" d="M152.82,21a1.35,1.35,0,1,0-.46-1.86A1.35,1.35,0,0,0,152.82,21Z"/><line class="cls-1" x1="119" y1="7.23" x2="140.65" y2="12.02"/><path class="cls-2" d="M118.71,8.55a1.35,1.35,0,1,1,1.62-1A1.35,1.35,0,0,1,118.71,8.55Z"/><path class="cls-2" d="M140.36,13.34a1.34,1.34,0,0,0,1.61-1,1.35,1.35,0,1,0-1.61,1Z"/><line class="cls-1" x1="104.12" y1="8.03" x2="119" y2="7.23"/><path class="cls-2" d="M104.2,9.39A1.36,1.36,0,1,1,105.48,8,1.36,1.36,0,0,1,104.2,9.39Z"/><path class="cls-2" d="M119.08,8.58a1.35,1.35,0,1,0-1.43-1.27A1.35,1.35,0,0,0,119.08,8.58Z"/><line class="cls-1" x1="83.03" y1="16.12" x2="104.12" y2="8.03"/><path class="cls-2" d="M83.51,17.39a1.35,1.35,0,1,1,.78-1.75A1.35,1.35,0,0,1,83.51,17.39Z"/><path class="cls-3" d="M104.61,9.3a1.35,1.35,0,1,0-1.75-.78A1.36,1.36,0,0,0,104.61,9.3Z"/><line class="cls-1" x1="77.33" y1="32.49" x2="83.03" y2="16.12"/><path class="cls-2" d="M78.61,32.94a1.36,1.36,0,1,1-.84-1.73A1.36,1.36,0,0,1,78.61,32.94Z"/><path class="cls-2" d="M84.31,16.57a1.36,1.36,0,1,0-1.73.83A1.35,1.35,0,0,0,84.31,16.57Z"/><line class="cls-1" x1="72.68" y1="45.83" x2="77.33" y2="32.49"/><path class="cls-2" d="M74,46.27a1.36,1.36,0,1,1-.83-1.72A1.36,1.36,0,0,1,74,46.27Z"/><path class="cls-2" d="M78.61,32.94a1.36,1.36,0,1,0-1.73.83A1.37,1.37,0,0,0,78.61,32.94Z"/><line class="cls-1" x1="70.31" y1="52.64" x2="72.68" y2="45.83"/><path class="cls-2" d="M71.59,53.09a1.36,1.36,0,1,1-.84-1.72A1.35,1.35,0,0,1,71.59,53.09Z"/><path class="cls-2" d="M74,46.27a1.36,1.36,0,1,0-1.72.84A1.35,1.35,0,0,0,74,46.27Z"/><line class="cls-1" x1="65.88" y1="54.97" x2="70.31" y2="52.64"/><path class="cls-2" d="M66.51,56.16a1.35,1.35,0,1,1,.57-1.82A1.35,1.35,0,0,1,66.51,56.16Z"/><path class="cls-2" d="M70.94,53.84a1.35,1.35,0,1,0-1.83-.57A1.35,1.35,0,0,0,70.94,53.84Z"/><line class="cls-4" x1="50.2" y1="63.18" x2="65.88" y2="54.97"/><path class="cls-2" d="M50.52,63.78a.69.69,0,0,1-.92-.29.68.68,0,0,1,.29-.91.67.67,0,0,1,.91.28A.68.68,0,0,1,50.52,63.78Z"/><path class="cls-2" d="M66.19,55.56a.67.67,0,1,0-.91-.28A.67.67,0,0,0,66.19,55.56Z"/><path class="cls-1" d="M50.61,64.41l-.41-1.23"/><path class="cls-2" d="M51.9,64a1.36,1.36,0,1,1-1.72-.86A1.37,1.37,0,0,1,51.9,64Z"/><path class="cls-2" d="M50.2,61.82a1.36,1.36,0,1,0,1.36,1.36A1.35,1.35,0,0,0,50.2,61.82Z"/><path class="cls-1" d="M67.57,62.11s-14.21,2.11-17,2.3"/><path class="cls-2" d="M67.37,60.77a1.35,1.35,0,1,1-1.14,1.54A1.36,1.36,0,0,1,67.37,60.77Z"/><path class="cls-3" d="M50.52,63.06A1.35,1.35,0,1,0,52,64.32,1.35,1.35,0,0,0,50.52,63.06Z"/><line class="cls-1" x1="79.88" y1="60.58" x2="67.57" y2="62.11"/><path class="cls-2" d="M79.72,59.23a1.36,1.36,0,1,1-1.18,1.51A1.36,1.36,0,0,1,79.72,59.23Z"/><path class="cls-2" d="M67.41,60.76a1.36,1.36,0,1,0,1.51,1.18A1.36,1.36,0,0,0,67.41,60.76Z"/><line class="cls-1" x1="120.51" y1="60.58" x2="79.88" y2="60.58"/><path class="cls-2" d="M120.51,59.22a1.36,1.36,0,1,1-1.36,1.36A1.35,1.35,0,0,1,120.51,59.22Z"/><path class="cls-2" d="M79.88,59.22a1.36,1.36,0,1,0,1.36,1.36A1.36,1.36,0,0,0,79.88,59.22Z"/><line class="cls-1" x1="148.98" y1="67.36" x2="120.51" y2="60.58"/><path class="cls-2" d="M149.3,66a1.36,1.36,0,0,1-.63,2.64A1.36,1.36,0,0,1,149.3,66Z"/><path class="cls-2" d="M120.82,59.26a1.35,1.35,0,1,0-.63,2.63,1.35,1.35,0,0,0,.63-2.63Z"/><line class="cls-1" x1="173.03" y1="73.57" x2="148.98" y2="67.36"/><path class="cls-2" d="M173.37,72.26a1.35,1.35,0,1,1-1.65,1A1.36,1.36,0,0,1,173.37,72.26Z"/><path class="cls-2" d="M149.32,66.05a1.35,1.35,0,1,0,1,1.65A1.36,1.36,0,0,0,149.32,66.05Z"/><line class="cls-1" x1="107.29" y1="59.15" x2="80.5" y2="60.42"/><path class="cls-2" d="M107.23,57.8a1.35,1.35,0,0,1,.13,2.7,1.35,1.35,0,1,1-.13-2.7Z"/><path class="cls-2" d="M80.44,59.07a1.35,1.35,0,1,0,1.42,1.28A1.35,1.35,0,0,0,80.44,59.07Z"/><line class="cls-1" x1="123.9" y1="61.29" x2="107.29" y2="59.15"/><path class="cls-2" d="M124.07,60a1.35,1.35,0,1,1-1.52,1.17A1.36,1.36,0,0,1,124.07,60Z"/><path class="cls-2" d="M107.47,57.81a1.35,1.35,0,1,0,1.16,1.51A1.34,1.34,0,0,0,107.47,57.81Z"/><line class="cls-1" x1="168.17" y1="72.3" x2="123.9" y2="61.29"/><path class="cls-2" d="M168.5,71a1.35,1.35,0,1,1-1.64,1A1.35,1.35,0,0,1,168.5,71Z"/><path class="cls-2" d="M124.22,60a1.35,1.35,0,1,0,1,1.64A1.36,1.36,0,0,0,124.22,60Z"/><line class="cls-1" x1="166.56" y1="74.21" x2="168.17" y2="72.3"/><path class="cls-2" d="M167.59,75.08a1.35,1.35,0,1,1-.16-1.9A1.35,1.35,0,0,1,167.59,75.08Z"/><path class="cls-2" d="M169.21,73.17a1.36,1.36,0,1,0-1.91.16A1.35,1.35,0,0,0,169.21,73.17Z"/><line class="cls-1" x1="157.8" y1="72.3" x2="166.56" y2="74.21"/><path class="cls-2" d="M157.51,73.62a1.36,1.36,0,1,1,1.62-1A1.37,1.37,0,0,1,157.51,73.62Z"/><path class="cls-2" d="M166.27,75.53a1.35,1.35,0,1,0-1-1.61A1.35,1.35,0,0,0,166.27,75.53Z"/><line class="cls-1" x1="153.54" y1="73.85" x2="157.8" y2="72.3"/><path class="cls-2" d="M154,75.12a1.35,1.35,0,1,1-.93-2.54,1.35,1.35,0,0,1,.93,2.54Z"/><path class="cls-2" d="M158.27,73.57a1.36,1.36,0,1,0-1.74-.81A1.37,1.37,0,0,0,158.27,73.57Z"/><line class="cls-1" x1="152.7" y1="78.77" x2="153.54" y2="73.85"/><path class="cls-2" d="M154,79a1.35,1.35,0,1,1-1.1-1.56A1.35,1.35,0,0,1,154,79Z"/><path class="cls-2" d="M154.88,74.08a1.35,1.35,0,1,0-1.57,1.1A1.35,1.35,0,0,0,154.88,74.08Z"/><line class="cls-1" x1="159.17" y1="85.33" x2="152.7" y2="78.77"/><path class="cls-2" d="M160.14,84.38a1.36,1.36,0,1,1-1.92,0A1.37,1.37,0,0,1,160.14,84.38Z"/><path class="cls-2" d="M153.66,77.82a1.35,1.35,0,1,0,0,1.91A1.35,1.35,0,0,0,153.66,77.82Z"/><line class="cls-1" x1="155.62" y1="94.27" x2="159.17" y2="85.33"/><path class="cls-2" d="M156.87,94.77a1.35,1.35,0,1,1-2.51-1,1.35,1.35,0,1,1,2.51,1Z"/><path class="cls-2" d="M160.43,85.84a1.36,1.36,0,0,0-2.52-1,1.36,1.36,0,0,0,2.52,1Z"/><line class="cls-1" x1="149.21" y1="90.26" x2="155.62" y2="94.27"/><path class="cls-2" d="M148.5,91.41a1.35,1.35,0,1,1,1.86-.43A1.35,1.35,0,0,1,148.5,91.41Z"/><path class="cls-2" d="M154.9,95.42a1.35,1.35,0,1,0-.43-1.87A1.35,1.35,0,0,0,154.9,95.42Z"/><line class="cls-1" x1="144.95" y1="85.97" x2="149.21" y2="90.26"/><path class="cls-2" d="M144,86.93a1.35,1.35,0,1,1,1.91,0A1.36,1.36,0,0,1,144,86.93Z"/><path class="cls-2" d="M148.26,91.22a1.35,1.35,0,1,0,0-1.92A1.35,1.35,0,0,0,148.26,91.22Z"/><line class="cls-1" x1="141.38" y1="75.1" x2="144.95" y2="85.97"/><path class="cls-2" d="M140.1,75.52a1.34,1.34,0,0,1,.86-1.7,1.35,1.35,0,1,1-.86,1.7Z"/><path class="cls-2" d="M143.66,86.4a1.35,1.35,0,1,0,.86-1.71A1.35,1.35,0,0,0,143.66,86.4Z"/><line class="cls-1" x1="132.91" y1="65.73" x2="141.38" y2="75.1"/><path class="cls-2" d="M131.91,66.64a1.35,1.35,0,1,1,1.91.09A1.35,1.35,0,0,1,131.91,66.64Z"/><path class="cls-2" d="M140.38,76a1.35,1.35,0,1,0,.09-1.91A1.36,1.36,0,0,0,140.38,76Z"/><line class="cls-1" x1="119.32" y1="65.73" x2="132.91" y2="65.73"/><circle class="cls-2" cx="119.32" cy="65.73" r="1.35"/><circle class="cls-2" cx="132.91" cy="65.73" r="1.35"/><line class="cls-1" x1="103.68" y1="63.39" x2="119.32" y2="65.73"/><path class="cls-2" d="M103.48,64.73a1.35,1.35,0,0,1,.4-2.68,1.35,1.35,0,0,1-.4,2.68Z"/><path class="cls-2" d="M119.12,67.07A1.35,1.35,0,1,0,118,65.53,1.36,1.36,0,0,0,119.12,67.07Z"/><line class="cls-1" x1="80.5" y1="60.42" x2="103.68" y2="63.39"/><path class="cls-2" d="M80.33,61.76a1.35,1.35,0,1,1,1.52-1.17A1.35,1.35,0,0,1,80.33,61.76Z"/><path class="cls-2" d="M103.51,64.73a1.35,1.35,0,1,0-1.17-1.51A1.36,1.36,0,0,0,103.51,64.73Z"/><line class="cls-1" x1="73.46" y1="52.42" x2="70.31" y2="52.64"/><path class="cls-2" d="M73.36,51.07a1.35,1.35,0,0,1,1.45,1.25,1.37,1.37,0,0,1-1.26,1.45,1.35,1.35,0,0,1-1.44-1.26A1.34,1.34,0,0,1,73.36,51.07Z"/><path class="cls-2" d="M70.21,51.29A1.37,1.37,0,0,0,69,52.74a1.35,1.35,0,0,0,2.7-.19A1.36,1.36,0,0,0,70.21,51.29Z"/><line class="cls-1" x1="81.02" y1="33.72" x2="73.46" y2="52.42"/><path class="cls-2" d="M79.77,33.21A1.35,1.35,0,1,1,80.52,35,1.35,1.35,0,0,1,79.77,33.21Z"/><path class="cls-2" d="M72.2,51.91A1.35,1.35,0,1,0,74,51.16,1.35,1.35,0,0,0,72.2,51.91Z"/><line class="cls-1" x1="92.72" y1="19.66" x2="81.02" y2="33.72"/><path class="cls-2" d="M91.68,18.79a1.36,1.36,0,1,1,.18,1.91A1.36,1.36,0,0,1,91.68,18.79Z"/><path class="cls-2" d="M80,32.86a1.35,1.35,0,1,0,1.91-.18A1.35,1.35,0,0,0,80,32.86Z"/><line class="cls-1" x1="113.4" y1="12.57" x2="92.72" y2="19.66"/><path class="cls-2" d="M113,11.29a1.35,1.35,0,0,1,1.72.84,1.35,1.35,0,0,1-2.56.88A1.34,1.34,0,0,1,113,11.29Z"/><path class="cls-2" d="M92.28,18.38a1.35,1.35,0,0,0,.88,2.56,1.35,1.35,0,1,0-.88-2.56Z"/><line class="cls-1" x1="133.37" y1="13.02" x2="113.4" y2="12.57"/><path class="cls-2" d="M133.4,11.66A1.36,1.36,0,1,1,132,13,1.36,1.36,0,0,1,133.4,11.66Z"/><path class="cls-2" d="M113.43,11.21a1.36,1.36,0,1,0,1.32,1.39A1.37,1.37,0,0,0,113.43,11.21Z"/><line class="cls-1" x1="142.38" y1="15.11" x2="133.37" y2="13.02"/><path class="cls-2" d="M142.68,13.79a1.35,1.35,0,1,1-1.62,1A1.36,1.36,0,0,1,142.68,13.79Z"/><path class="cls-2" d="M133.67,11.7a1.35,1.35,0,1,0,1,1.62A1.34,1.34,0,0,0,133.67,11.7Z"/><line class="cls-1" x1="153.52" y1="19.79" x2="142.38" y2="15.11"/><path class="cls-2" d="M154,18.54a1.36,1.36,0,1,1-1.77.73A1.36,1.36,0,0,1,154,18.54Z"/><path class="cls-2" d="M142.9,13.86a1.35,1.35,0,1,0,.72,1.77A1.35,1.35,0,0,0,142.9,13.86Z"/><line class="cls-1" x1="161.29" y1="80.14" x2="165.14" y2="73.83"/><path class="cls-2" d="M162.45,80.84A1.35,1.35,0,1,1,162,79,1.35,1.35,0,0,1,162.45,80.84Z"/><path class="cls-2" d="M166.29,74.53a1.35,1.35,0,1,0-1.86.46A1.35,1.35,0,0,0,166.29,74.53Z"/><line class="cls-1" x1="158.46" y1="84.79" x2="161.29" y2="80.14"/><path class="cls-2" d="M159.61,85.49a1.35,1.35,0,1,1-.45-1.86A1.36,1.36,0,0,1,159.61,85.49Z"/><path class="cls-2" d="M162.45,80.84a1.35,1.35,0,1,0-1.86.45A1.36,1.36,0,0,0,162.45,80.84Z"/><line class="cls-1" x1="127.89" y1="43.75" x2="122.18" y2="55.74"/><path class="cls-2" d="M126.67,43.17a1.36,1.36,0,1,1,.64,1.81A1.36,1.36,0,0,1,126.67,43.17Z"/><path class="cls-2" d="M121,55.16a1.35,1.35,0,0,0,2.44,1.16A1.35,1.35,0,0,0,121,55.16Z"/><line class="cls-1" x1="132.36" y1="44.57" x2="127.89" y2="43.75"/><path class="cls-2" d="M132.61,43.24A1.36,1.36,0,1,1,131,44.33,1.35,1.35,0,0,1,132.61,43.24Z"/><path class="cls-2" d="M128.14,42.42A1.35,1.35,0,1,0,129.23,44,1.36,1.36,0,0,0,128.14,42.42Z"/><line class="cls-1" x1="133.41" y1="58.29" x2="132.36" y2="44.57"/><path class="cls-2" d="M134.76,58.19a1.35,1.35,0,1,1-1.45-1.25A1.35,1.35,0,0,1,134.76,58.19Z"/><path class="cls-3" d="M133.71,44.47a1.35,1.35,0,1,0-1.24,1.45A1.34,1.34,0,0,0,133.71,44.47Z"/><line class="cls-1" x1="92.46" y1="55.74" x2="73.46" y2="52.42"/><path class="cls-2" d="M92.7,54.4a1.36,1.36,0,1,1-1.57,1.1A1.36,1.36,0,0,1,92.7,54.4Z"/><path class="cls-2" d="M73.69,51.08a1.36,1.36,0,1,0,1.1,1.57A1.36,1.36,0,0,0,73.69,51.08Z"/><line class="cls-1" x1="89.23" y1="43.02" x2="88.04" y2="54.97"/><path class="cls-2" d="M87.88,42.89a1.36,1.36,0,1,1,1.22,1.48A1.35,1.35,0,0,1,87.88,42.89Z"/><path class="cls-2" d="M86.7,54.83a1.35,1.35,0,0,0,2.69.27,1.35,1.35,0,1,0-2.69-.27Z"/><line class="cls-1" x1="85.49" y1="43.02" x2="89.23" y2="43.02"/><path class="cls-2" d="M85.49,44.38A1.36,1.36,0,1,1,86.85,43,1.35,1.35,0,0,1,85.49,44.38Z"/><circle class="cls-2" cx="89.23" cy="43.02" r="1.35" transform="translate(-2.83 6.43) rotate(-4.07)"/><line class="cls-1" x1="80.1" y1="53.58" x2="85.49" y2="43.02"/><path class="cls-2" d="M81.31,54.19a1.35,1.35,0,1,1-.59-1.82A1.35,1.35,0,0,1,81.31,54.19Z"/><path class="cls-2" d="M86.7,43.64a1.35,1.35,0,1,0-1.82.59A1.36,1.36,0,0,0,86.7,43.64Z"/><line class="cls-1" x1="74.67" y1="58.4" x2="50.2" y2="63.18"/><path class="cls-2" d="M74.41,57.07a1.36,1.36,0,1,1-1.07,1.59A1.37,1.37,0,0,1,74.41,57.07Z"/><path class="cls-2" d="M49.94,61.85a1.35,1.35,0,1,0,1.59,1.07A1.34,1.34,0,0,0,49.94,61.85Z"/><line class="cls-1" x1="105.99" y1="54.05" x2="74.67" y2="58.4"/><path class="cls-2" d="M105.8,52.71a1.35,1.35,0,1,1,.37,2.68,1.37,1.37,0,0,1-1.53-1.16A1.35,1.35,0,0,1,105.8,52.71Z"/><path class="cls-2" d="M74.48,57.06a1.35,1.35,0,0,0,.37,2.68,1.35,1.35,0,1,0-.37-2.68Z"/><line class="cls-1" x1="115.86" y1="54.42" x2="105.99" y2="54.05"/><path class="cls-2" d="M115.91,53.07a1.35,1.35,0,1,1-1.41,1.3A1.35,1.35,0,0,1,115.91,53.07Z"/><circle class="cls-2" cx="105.99" cy="54.05" r="1.35"/><line class="cls-1" x1="150.4" y1="62.03" x2="115.86" y2="54.42"/><path class="cls-2" d="M150.69,60.71a1.35,1.35,0,1,1-1.62,1A1.37,1.37,0,0,1,150.69,60.71Z"/><path class="cls-2" d="M116.15,53.1a1.35,1.35,0,1,0,1,1.61A1.35,1.35,0,0,0,116.15,53.1Z"/><line class="cls-1" x1="168.93" y1="67.42" x2="150.4" y2="62.03"/><path class="cls-2" d="M169.31,66.12a1.35,1.35,0,1,1-1.68.92A1.35,1.35,0,0,1,169.31,66.12Z"/><path class="cls-2" d="M150.77,60.73a1.35,1.35,0,1,0,.93,1.68A1.35,1.35,0,0,0,150.77,60.73Z"/><line class="cls-1" x1="165.14" y1="55.48" x2="168.93" y2="67.42"/><path class="cls-2" d="M163.85,55.89a1.35,1.35,0,1,1,1.7.88A1.36,1.36,0,0,1,163.85,55.89Z"/><path class="cls-2" d="M167.64,67.83a1.35,1.35,0,1,0,2.58-.82,1.35,1.35,0,0,0-2.58.82Z"/><line class="cls-1" x1="163.18" y1="55.48" x2="165.14" y2="55.48"/><circle class="cls-2" cx="163.18" cy="55.48" r="1.35"/><path class="cls-2" d="M165.14,56.83a1.35,1.35,0,1,0-1.36-1.35A1.34,1.34,0,0,0,165.14,56.83Z"/><line class="cls-1" x1="163.85" y1="65.87" x2="163.18" y2="55.48"/><path class="cls-2" d="M165.2,65.79a1.35,1.35,0,1,1-1.44-1.27A1.35,1.35,0,0,1,165.2,65.79Z"/><path class="cls-2" d="M164.53,55.39a1.35,1.35,0,0,0-1.43-1.26,1.35,1.35,0,1,0,.17,2.7A1.35,1.35,0,0,0,164.53,55.39Z"/><line class="cls-1" x1="107.29" y1="174.47" x2="101.04" y2="170.57"/><path class="cls-2" d="M108,173.32a1.35,1.35,0,1,1-1.86.43A1.36,1.36,0,0,1,108,173.32Z"/><path class="cls-2" d="M101.75,169.42a1.35,1.35,0,1,0,.44,1.86A1.35,1.35,0,0,0,101.75,169.42Z"/><line class="cls-1" x1="107.01" y1="180.93" x2="107.29" y2="174.47"/><path class="cls-2" d="M108.36,181a1.36,1.36,0,1,1-1.29-1.41A1.37,1.37,0,0,1,108.36,181Z"/><path class="cls-2" d="M108.65,174.53a1.36,1.36,0,1,0-1.42,1.29A1.35,1.35,0,0,0,108.65,174.53Z"/><line class="cls-1" x1="105.99" y1="191.99" x2="107.01" y2="180.93"/><path class="cls-2" d="M107.33,192.11a1.35,1.35,0,1,1-1.22-1.47A1.35,1.35,0,0,1,107.33,192.11Z"/><path class="cls-2" d="M108.35,181.06a1.35,1.35,0,1,0-1.47,1.22A1.34,1.34,0,0,0,108.35,181.06Z"/><line class="cls-1" x1="98.43" y1="192.17" x2="105.99" y2="191.99"/><path class="cls-2" d="M98.46,193.53a1.36,1.36,0,0,1-.06-2.71,1.34,1.34,0,0,1,1.38,1.32A1.35,1.35,0,0,1,98.46,193.53Z"/><path class="cls-2" d="M106,193.34a1.35,1.35,0,1,0-1.39-1.32A1.34,1.34,0,0,0,106,193.34Z"/><line class="cls-1" x1="95.36" y1="178.39" x2="98.43" y2="192.17"/><path class="cls-2" d="M94,178.68a1.35,1.35,0,0,1,1-1.61,1.34,1.34,0,0,1,1.61,1,1.35,1.35,0,1,1-2.64.59Z"/><path class="cls-2" d="M97.11,192.47a1.35,1.35,0,1,0,1-1.62A1.36,1.36,0,0,0,97.11,192.47Z"/><line class="cls-1" x1="101.04" y1="170.57" x2="95.36" y2="178.39"/><path class="cls-2" d="M99.94,169.77a1.35,1.35,0,1,1,.3,1.89A1.36,1.36,0,0,1,99.94,169.77Z"/><path class="cls-2" d="M94.27,177.59a1.35,1.35,0,1,0,1.89-.3A1.35,1.35,0,0,0,94.27,177.59Z"/><line class="cls-1" x1="102.99" y1="206.19" x2="104.22" y2="224.54"/><path class="cls-2" d="M101.64,206.29a1.35,1.35,0,1,1,1.44,1.25A1.34,1.34,0,0,1,101.64,206.29Z"/><path class="cls-2" d="M102.87,224.63a1.35,1.35,0,1,0,1.26-1.45A1.36,1.36,0,0,0,102.87,224.63Z"/><line class="cls-1" x1="105.99" y1="191.99" x2="102.99" y2="206.19"/><path class="cls-2" d="M104.66,191.71a1.35,1.35,0,1,1,1,1.6A1.35,1.35,0,0,1,104.66,191.71Z"/><path class="cls-3" d="M101.66,205.91a1.35,1.35,0,1,0,1.61-1A1.36,1.36,0,0,0,101.66,205.91Z"/><line class="cls-1" x1="98.43" y1="192.17" x2="94.84" y2="214.73"/><path class="cls-2" d="M97.09,192a1.36,1.36,0,1,1,1.13,1.55A1.35,1.35,0,0,1,97.09,192Z"/><path class="cls-2" d="M93.5,214.52a1.36,1.36,0,1,0,1.55-1.12A1.36,1.36,0,0,0,93.5,214.52Z"/><line class="cls-1" x1="100.9" y1="192.11" x2="96.35" y2="205.28"/><circle class="cls-2" cx="100.9" cy="192.11" r="1.35" transform="translate(-102.36 268.11) rotate(-82.79)"/><path class="cls-2" d="M95.07,204.83a1.35,1.35,0,1,0,2.55.89,1.35,1.35,0,1,0-2.55-.89Z"/><line class="cls-1" x1="101.04" y1="170.57" x2="105.01" y2="161.67"/><path class="cls-2" d="M102.27,171.12A1.35,1.35,0,0,1,99.8,170a1.35,1.35,0,1,1,2.47,1.11Z"/><path class="cls-2" d="M106.25,162.22a1.35,1.35,0,0,0-2.47-1.1,1.35,1.35,0,1,0,2.47,1.1Z"/><line class="cls-4" x1="134.23" y1="48.99" x2="132.36" y2="44.57"/><path class="cls-2" d="M134.86,48.73a.68.68,0,1,1-1.25.53.68.68,0,0,1,.36-.89A.69.69,0,0,1,134.86,48.73Z"/><path class="cls-2" d="M133,44.31a.69.69,0,0,0-.89-.36.67.67,0,0,0-.36.89.68.68,0,0,0,.89.36A.69.69,0,0,0,133,44.31Z"/><line class="cls-4" x1="133.16" y1="54.97" x2="134.23" y2="48.99"/><path class="cls-2" d="M133.82,55.09a.67.67,0,0,1-.78.54.68.68,0,1,1,.78-.54Z"/><path class="cls-2" d="M134.9,49.11a.68.68,0,0,0-1.33-.24.68.68,0,1,0,1.33.24Z"/><line class="cls-4" x1="150.24" y1="61.99" x2="133.16" y2="54.97"/><path class="cls-2" d="M150.5,61.36a.68.68,0,1,1-.88.37A.68.68,0,0,1,150.5,61.36Z"/><path class="cls-2" d="M133.41,54.34a.68.68,0,1,0,.37.88A.67.67,0,0,0,133.41,54.34Z"/><line class="cls-4" x1="163.18" y1="55.48" x2="150.24" y2="61.99"/><path class="cls-2" d="M162.88,54.87a.69.69,0,0,1,.91.31.68.68,0,0,1-1.21.6A.68.68,0,0,1,162.88,54.87Z"/><path class="cls-2" d="M149.94,61.38a.68.68,0,0,0-.3.91.68.68,0,0,0,1.21-.6A.69.69,0,0,0,149.94,61.38Z"/><line class="cls-4" x1="78.41" y1="47" x2="73.46" y2="52.42"/><path class="cls-2" d="M77.91,46.54a.68.68,0,0,1,1,0,.67.67,0,0,1,0,1,.68.68,0,0,1-1,0A.69.69,0,0,1,77.91,46.54Z"/><path class="cls-2" d="M73,52a.67.67,0,1,0,1,.91A.67.67,0,0,0,73,52Z"/><line class="cls-4" x1="81.73" y1="32.33" x2="78.41" y2="47"/><path class="cls-2" d="M81.07,32.18a.69.69,0,0,1,.81-.51.67.67,0,0,1,.51.81.66.66,0,0,1-.81.51A.68.68,0,0,1,81.07,32.18Z"/><path class="cls-2" d="M77.75,46.85a.67.67,0,0,0,.51.81.69.69,0,0,0,.81-.51.68.68,0,0,0-.51-.81A.66.66,0,0,0,77.75,46.85Z"/><line class="cls-4" x1="89.23" y1="43.02" x2="81.73" y2="32.33"/><path class="cls-2" d="M89.78,42.64a.67.67,0,0,1-.16.94.68.68,0,1,1,.16-.94Z"/><path class="cls-2" d="M82.29,32a.68.68,0,1,0-.17.94A.68.68,0,0,0,82.29,32Z"/><line class="cls-4" x1="102.8" y1="33.95" x2="89.23" y2="43.02"/><path class="cls-2" d="M102.42,33.39a.68.68,0,0,1,.94.19.67.67,0,1,1-.94-.19Z"/><path class="cls-2" d="M88.85,42.46a.68.68,0,0,0-.18.94.69.69,0,0,0,.94.19.68.68,0,0,0-.76-1.13Z"/><line class="cls-4" x1="118.58" y1="30.95" x2="102.8" y2="33.95"/><path class="cls-2" d="M118.46,30.29a.68.68,0,0,1,.79.54.69.69,0,0,1-.54.79.68.68,0,0,1-.25-1.33Z"/><path class="cls-2" d="M102.67,33.29a.68.68,0,1,0,.79.54A.67.67,0,0,0,102.67,33.29Z"/><line class="cls-4" x1="127.89" y1="43.75" x2="118.58" y2="30.95"/><path class="cls-2" d="M128.44,43.36a.67.67,0,0,1-1.09.79.67.67,0,1,1,1.09-.79Z"/><path class="cls-2" d="M119.13,30.56a.68.68,0,0,0-1.1.79.68.68,0,0,0,1,.15A.67.67,0,0,0,119.13,30.56Z"/><line class="cls-4" x1="78.41" y1="47" x2="80.1" y2="53.58"/><path class="cls-2" d="M77.75,47.17a.69.69,0,0,1,.49-.83.68.68,0,0,1,.82.49.66.66,0,0,1-.48.82A.67.67,0,0,1,77.75,47.17Z"/><path class="cls-2" d="M79.45,53.75a.66.66,0,0,0,.82.48.68.68,0,0,0,.49-.82.69.69,0,0,0-.83-.49A.67.67,0,0,0,79.45,53.75Z"/><line class="cls-4" x1="108.15" y1="48.43" x2="88.04" y2="54.97"/><path class="cls-2" d="M107.94,47.79a.68.68,0,0,1,.42,1.29.69.69,0,0,1-.86-.44A.68.68,0,0,1,107.94,47.79Z"/><path class="cls-2" d="M87.83,54.32a.68.68,0,1,0,.86.44A.69.69,0,0,0,87.83,54.32Z"/><line class="cls-4" x1="122.33" y1="55.42" x2="108.15" y2="48.43"/><path class="cls-2" d="M122.63,54.82a.68.68,0,1,1-.9.3A.67.67,0,0,1,122.63,54.82Z"/><path class="cls-2" d="M108.45,47.83a.68.68,0,1,0,.3.9A.67.67,0,0,0,108.45,47.83Z"/><line class="cls-4" x1="80.96" y1="22.06" x2="81.73" y2="32.33"/><path class="cls-2" d="M80.29,22.11a.68.68,0,0,1,.62-.73.7.7,0,0,1,.73.63.68.68,0,0,1-1.35.1Z"/><path class="cls-2" d="M81.06,32.39a.68.68,0,1,0,.62-.73A.67.67,0,0,0,81.06,32.39Z"/><line class="cls-4" x1="91.9" y1="11.28" x2="80.96" y2="22.06"/><path class="cls-2" d="M91.43,10.8a.68.68,0,1,1,0,.95A.67.67,0,0,1,91.43,10.8Z"/><path class="cls-2" d="M80.49,21.58a.67.67,0,0,0,0,1,.68.68,0,1,0,0-1Z"/><line class="cls-4" x1="111.62" y1="12.82" x2="91.9" y2="11.28"/><path class="cls-2" d="M111.67,12.15a.68.68,0,1,1-.73.62A.68.68,0,0,1,111.67,12.15Z"/><path class="cls-2" d="M92,10.61a.67.67,0,1,0-.1,1.34.67.67,0,0,0,.73-.62A.67.67,0,0,0,92,10.61Z"/><line class="cls-4" x1="105.19" y1="24.04" x2="111.62" y2="12.82"/><path class="cls-2" d="M105.77,24.38a.68.68,0,1,1-.25-.93A.68.68,0,0,1,105.77,24.38Z"/><path class="cls-2" d="M112.2,13.16a.67.67,0,0,0-1.17-.67.67.67,0,0,0,.25.92A.66.66,0,0,0,112.2,13.16Z"/><line class="cls-4" x1="118.58" y1="30.95" x2="105.19" y2="24.04"/><path class="cls-2" d="M118.89,30.35a.68.68,0,0,1-.62,1.21.69.69,0,0,1-.29-.92A.68.68,0,0,1,118.89,30.35Z"/><path class="cls-2" d="M105.5,23.44a.68.68,0,0,0-.91.29.66.66,0,0,0,.29.91.68.68,0,1,0,.62-1.2Z"/><line class="cls-4" x1="108.15" y1="48.43" x2="118.58" y2="30.95"/><path class="cls-2" d="M108.73,48.78a.68.68,0,0,1-.93.23.67.67,0,0,1,.69-1.16A.68.68,0,0,1,108.73,48.78Z"/><path class="cls-2" d="M119.16,31.3a.67.67,0,1,0-.93.24A.68.68,0,0,0,119.16,31.3Z"/><line class="cls-4" x1="102.8" y1="33.95" x2="108.15" y2="48.43"/><path class="cls-2" d="M102.16,34.19a.68.68,0,1,1,.87.4A.68.68,0,0,1,102.16,34.19Z"/><path class="cls-2" d="M107.51,48.67a.68.68,0,1,0,.4-.87A.68.68,0,0,0,107.51,48.67Z"/><line class="cls-4" x1="92.42" y1="19.87" x2="91.9" y2="11.28"/><path class="cls-2" d="M93.09,19.83a.67.67,0,0,1-.63.72.69.69,0,0,1-.72-.64.67.67,0,0,1,.64-.71A.66.66,0,0,1,93.09,19.83Z"/><path class="cls-2" d="M92.58,11.24a.69.69,0,0,0-.72-.64A.68.68,0,0,0,91.94,12,.69.69,0,0,0,92.58,11.24Z"/><line class="cls-4" x1="80.96" y1="22.06" x2="92.42" y2="19.87"/><path class="cls-2" d="M81.09,22.72a.67.67,0,1,1,.54-.79A.67.67,0,0,1,81.09,22.72Z"/><path class="cls-2" d="M92.55,20.54a.68.68,0,1,0-.8-.54A.68.68,0,0,0,92.55,20.54Z"/><line class="cls-4" x1="79.13" y1="70.93" x2="75.89" y2="68.8"/><path class="cls-2" d="M79.5,70.37a.67.67,0,0,1,.19.94.68.68,0,1,1-.19-.94Z"/><path class="cls-2" d="M76.27,68.24a.68.68,0,1,0,.19.93A.67.67,0,0,0,76.27,68.24Z"/><line class="cls-4" x1="77.01" y1="65.36" x2="79.13" y2="70.93"/><path class="cls-2" d="M76.38,65.61a.68.68,0,1,1,.87.39A.68.68,0,0,1,76.38,65.61Z"/><path class="cls-2" d="M78.49,71.17a.68.68,0,1,0,1.27-.48.68.68,0,0,0-1.27.48Z"/><line class="cls-4" x1="86.18" y1="71.11" x2="77.01" y2="65.36"/><path class="cls-2" d="M86.54,70.54a.67.67,0,1,1-.94.21A.67.67,0,0,1,86.54,70.54Z"/><path class="cls-2" d="M77.37,64.79a.67.67,0,0,0-.93.22.68.68,0,0,0,.21.93.68.68,0,0,0,.72-1.15Z"/><line class="cls-4" x1="77.79" y1="82.74" x2="72.11" y2="80.82"/><path class="cls-2" d="M78,82.1a.66.66,0,0,1,.43.85A.68.68,0,1,1,78,82.1Z"/><path class="cls-2" d="M72.33,80.18a.68.68,0,1,0-.43,1.28.67.67,0,0,0,.85-.42A.68.68,0,0,0,72.33,80.18Z"/><line class="cls-4" x1="66.21" y1="92.14" x2="77.79" y2="82.74"/><path class="cls-2" d="M66.63,92.67a.68.68,0,1,1,.1-1A.67.67,0,0,1,66.63,92.67Z"/><path class="cls-2" d="M78.21,83.26a.67.67,0,0,0,.1-1,.68.68,0,1,0-1,.85A.67.67,0,0,0,78.21,83.26Z"/><line class="cls-4" x1="72.09" y1="94.27" x2="66.21" y2="92.14"/><path class="cls-2" d="M72.32,93.63a.68.68,0,1,1-.87.41A.69.69,0,0,1,72.32,93.63Z"/><path class="cls-2" d="M66.44,91.51A.68.68,0,1,0,66,92.78a.68.68,0,0,0,.46-1.27Z"/><line class="cls-4" x1="72.36" y1="90.26" x2="72.09" y2="94.27"/><path class="cls-2" d="M71.69,90.21a.67.67,0,0,1,.72-.63.69.69,0,0,1,.63.73.67.67,0,0,1-.73.62A.66.66,0,0,1,71.69,90.21Z"/><path class="cls-2" d="M71.41,94.23a.68.68,0,0,0,1.35.09.66.66,0,0,0-.63-.72A.67.67,0,0,0,71.41,94.23Z"/><line class="cls-4" x1="77.79" y1="82.74" x2="72.36" y2="90.26"/><path class="cls-2" d="M77.24,82.34a.67.67,0,0,1,.94-.15.67.67,0,0,1,.16.94.68.68,0,1,1-1.1-.79Z"/><path class="cls-2" d="M71.81,89.86a.68.68,0,1,0,1-.15A.68.68,0,0,0,71.81,89.86Z"/><line class="cls-4" x1="74.82" y1="75.49" x2="77.79" y2="82.74"/><path class="cls-2" d="M74.2,75.74a.68.68,0,1,1,.88.37A.67.67,0,0,1,74.2,75.74Z"/><path class="cls-2" d="M77.16,83a.67.67,0,0,0,.88.37.66.66,0,0,0,.37-.88.67.67,0,0,0-.88-.37A.68.68,0,0,0,77.16,83Z"/><line class="cls-4" x1="80.1" y1="72.16" x2="74.82" y2="75.49"/><path class="cls-2" d="M79.74,71.59a.68.68,0,1,1-.21.93A.67.67,0,0,1,79.74,71.59Z"/><path class="cls-2" d="M74.46,74.91a.69.69,0,0,0-.21.94.68.68,0,1,0,.21-.94Z"/><line class="cls-4" x1="80.1" y1="75.11" x2="80.1" y2="72.16"/><path class="cls-2" d="M80.78,75.11a.68.68,0,0,1-1.36,0,.68.68,0,1,1,1.36,0Z"/><path class="cls-2" d="M80.78,72.16a.68.68,0,0,0-1.36,0,.68.68,0,1,0,1.36,0Z"/><line class="cls-4" x1="83.13" y1="77.69" x2="80.1" y2="75.11"/><path class="cls-2" d="M83.57,77.18a.67.67,0,1,1-1,.07A.68.68,0,0,1,83.57,77.18Z"/><path class="cls-2" d="M80.54,74.59a.68.68,0,0,0-.88,1,.68.68,0,1,0,.88-1Z"/><line class="cls-4" x1="81.8" y1="78.36" x2="80.1" y2="75.11"/><path class="cls-2" d="M82.4,78.05a.68.68,0,0,1-1.2.62.68.68,0,1,1,1.2-.62Z"/><path class="cls-2" d="M80.7,74.79a.67.67,0,0,0-.91-.28.68.68,0,1,0,.91.28Z"/><line class="cls-4" x1="77.79" y1="82.74" x2="81.8" y2="78.36"/><path class="cls-2" d="M78.29,83.19a.68.68,0,0,1-1,0,.69.69,0,0,1,0-1,.68.68,0,0,1,1,.91Z"/><path class="cls-2" d="M82.3,78.82a.68.68,0,1,0-1,0A.69.69,0,0,0,82.3,78.82Z"/><line class="cls-4" x1="79.47" y1="90.53" x2="77.79" y2="82.74"/><path class="cls-2" d="M80.13,90.39a.67.67,0,0,1-.51.8.68.68,0,1,1-.29-1.32A.66.66,0,0,1,80.13,90.39Z"/><path class="cls-2" d="M78.45,82.59a.68.68,0,0,0-.81-.51.66.66,0,0,0-.51.8.68.68,0,1,0,1.32-.29Z"/><line class="cls-4" x1="74.14" y1="100.93" x2="76.74" y2="95.93"/><path class="cls-2" d="M74.74,101.24a.66.66,0,0,1-.91.29.68.68,0,1,1,.91-.29Z"/><path class="cls-2" d="M77.34,96.24a.68.68,0,0,0-.29-.91.68.68,0,1,0-.62,1.2A.68.68,0,0,0,77.34,96.24Z"/><line class="cls-4" x1="77.15" y1="103.7" x2="74.14" y2="100.93"/><path class="cls-2" d="M77.61,103.2a.68.68,0,1,1-1,0A.69.69,0,0,1,77.61,103.2Z"/><path class="cls-2" d="M74.6,100.43a.68.68,0,0,0-.92,1,.68.68,0,0,0,1,0A.69.69,0,0,0,74.6,100.43Z"/><line class="cls-4" x1="81.3" y1="99.56" x2="77.15" y2="103.7"/><path class="cls-2" d="M80.82,99.08a.68.68,0,1,1,0,1A.69.69,0,0,1,80.82,99.08Z"/><path class="cls-2" d="M76.67,103.22a.68.68,0,1,0,1,0A.69.69,0,0,0,76.67,103.22Z"/><line class="cls-4" x1="76.74" y1="95.93" x2="81.3" y2="99.56"/><path class="cls-2" d="M76.32,96.46a.68.68,0,0,1-.11-1,.67.67,0,0,1,1-.1.68.68,0,0,1-.84,1.06Z"/><path class="cls-2" d="M80.88,100.09a.68.68,0,1,0-.11-1A.68.68,0,0,0,80.88,100.09Z"/><line class="cls-4" x1="74.14" y1="97.51" x2="76.74" y2="95.93"/><path class="cls-2" d="M74.49,98.09a.68.68,0,1,1,.23-.93A.68.68,0,0,1,74.49,98.09Z"/><path class="cls-2" d="M77.09,96.5a.68.68,0,0,0,.23-.93.67.67,0,0,0-.93-.22.68.68,0,0,0-.23.93A.67.67,0,0,0,77.09,96.5Z"/><line class="cls-4" x1="83.13" y1="123.43" x2="82.21" y2="130.61"/><path class="cls-2" d="M82.46,123.35a.67.67,0,0,1,.75-.59A.68.68,0,1,1,83,124.1.66.66,0,0,1,82.46,123.35Z"/><path class="cls-2" d="M81.54,130.52a.68.68,0,1,0,.76-.58A.68.68,0,0,0,81.54,130.52Z"/><line class="cls-4" x1="79.88" y1="117.21" x2="83.13" y2="123.43"/><path class="cls-2" d="M79.28,117.52a.69.69,0,0,1,.29-.92.68.68,0,0,1,.63,1.21A.69.69,0,0,1,79.28,117.52Z"/><path class="cls-2" d="M82.53,123.75a.67.67,0,0,0,.91.28.68.68,0,1,0-.91-.28Z"/><line class="cls-4" x1="80.98" y1="109.41" x2="79.88" y2="117.21"/><path class="cls-2" d="M80.31,109.31a.67.67,0,0,1,.76-.57.68.68,0,0,1,.58.76.69.69,0,0,1-.77.58A.68.68,0,0,1,80.31,109.31Z"/><path class="cls-2" d="M79.21,117.11a.69.69,0,0,0,.58.77.68.68,0,0,0,.19-1.35A.69.69,0,0,0,79.21,117.11Z"/><line class="cls-4" x1="85.63" y1="115.7" x2="80.98" y2="109.41"/><path class="cls-2" d="M86.17,115.3a.66.66,0,0,1-.14.94.67.67,0,1,1-.8-1.08A.66.66,0,0,1,86.17,115.3Z"/><path class="cls-2" d="M81.52,109a.67.67,0,0,0-.94-.15.68.68,0,1,0,.8,1.09A.67.67,0,0,0,81.52,109Z"/><line class="cls-4" x1="109.84" y1="102.3" x2="119.14" y2="97.37"/><path class="cls-2" d="M110.16,102.9a.68.68,0,1,1-.63-1.2.68.68,0,0,1,.63,1.2Z"/><path class="cls-2" d="M119.46,98a.68.68,0,1,0-.92-.28A.69.69,0,0,0,119.46,98Z"/><line class="cls-4" x1="95.43" y1="109.02" x2="109.84" y2="102.3"/><path class="cls-2" d="M95.72,109.63a.68.68,0,0,1-.9-.32.68.68,0,0,1,1.22-.58A.68.68,0,0,1,95.72,109.63Z"/><path class="cls-2" d="M110.13,102.92a.69.69,0,0,0,.33-.9.68.68,0,0,0-1.23.57A.68.68,0,0,0,110.13,102.92Z"/><line class="cls-4" x1="101.23" y1="115.28" x2="95.43" y2="109.02"/><path class="cls-2" d="M101.73,114.82a.68.68,0,1,1-1,0A.69.69,0,0,1,101.73,114.82Z"/><path class="cls-2" d="M95.93,108.56a.68.68,0,1,0,0,1A.69.69,0,0,0,95.93,108.56Z"/><line class="cls-4" x1="94.54" y1="127.16" x2="101.23" y2="115.28"/><path class="cls-2" d="M95.13,127.49a.68.68,0,0,1-.93.25.67.67,0,0,1,.67-1.17A.68.68,0,0,1,95.13,127.49Z"/><path class="cls-2" d="M101.82,115.61a.67.67,0,0,0-.25-.92.68.68,0,1,0-.67,1.18A.67.67,0,0,0,101.82,115.61Z"/><line class="cls-4" x1="83.13" y1="123.43" x2="94.54" y2="127.16"/><path class="cls-2" d="M82.92,124.08a.67.67,0,0,1-.43-.86.67.67,0,0,1,1.28.42A.68.68,0,0,1,82.92,124.08Z"/><path class="cls-2" d="M94.33,127.8a.68.68,0,1,0-.44-.85A.68.68,0,0,0,94.33,127.8Z"/><line class="cls-4" x1="76.87" y1="125.41" x2="83.13" y2="123.43"/><path class="cls-2" d="M77.08,126.06a.68.68,0,0,1-.85-.44.67.67,0,0,1,.44-.85.67.67,0,0,1,.85.44A.68.68,0,0,1,77.08,126.06Z"/><path class="cls-2" d="M83.33,124.08a.67.67,0,0,0,.44-.85.67.67,0,0,0-.85-.44.68.68,0,0,0-.44.85A.69.69,0,0,0,83.33,124.08Z"/><line class="cls-4" x1="97.28" y1="126.39" x2="95.36" y2="131.77"/><path class="cls-2" d="M96.64,126.16a.67.67,0,0,1,.86-.41.67.67,0,0,1-.45,1.27A.67.67,0,0,1,96.64,126.16Z"/><path class="cls-2" d="M94.72,131.54a.69.69,0,0,0,.41.87.68.68,0,1,0-.41-.87Z"/><line class="cls-4" x1="101.22" y1="135.12" x2="97.28" y2="126.39"/><path class="cls-2" d="M101.84,134.85a.67.67,0,1,1-1.23.55.66.66,0,0,1,.33-.89A.67.67,0,0,1,101.84,134.85Z"/><path class="cls-2" d="M97.89,126.11a.67.67,0,0,0-.89-.34.69.69,0,0,0-.34.9.67.67,0,0,0,.9.33A.66.66,0,0,0,97.89,126.11Z"/><line class="cls-4" x1="103.68" y1="124.59" x2="101.22" y2="135.12"/><path class="cls-2" d="M103,124.44a.68.68,0,1,1,1.32.31.67.67,0,0,1-.81.5A.68.68,0,0,1,103,124.44Z"/><path class="cls-2" d="M100.56,135a.68.68,0,1,0,.82-.51A.69.69,0,0,0,100.56,135Z"/><line class="cls-4" x1="101.23" y1="115.28" x2="103.68" y2="124.59"/><path class="cls-2" d="M100.58,115.45a.66.66,0,0,1,.48-.82.68.68,0,0,1,.83.48.68.68,0,0,1-1.31.34Z"/><path class="cls-2" d="M103,124.76a.68.68,0,0,0,.83.49.69.69,0,0,0,.48-.83.68.68,0,0,0-.83-.48A.66.66,0,0,0,103,124.76Z"/><line class="cls-4" x1="109.84" y1="102.3" x2="101.23" y2="115.28"/><path class="cls-2" d="M109.28,101.93a.67.67,0,0,1,.94-.19.68.68,0,1,1-.94.19Z"/><path class="cls-2" d="M100.67,114.91a.68.68,0,0,0,1.13.74.68.68,0,0,0-1.13-.74Z"/><line class="cls-4" x1="116.68" y1="112.28" x2="109.84" y2="102.3"/><path class="cls-2" d="M117.24,111.9a.68.68,0,1,1-.94-.18A.68.68,0,0,1,117.24,111.9Z"/><path class="cls-2" d="M110.4,101.92a.68.68,0,1,0-.18.94A.68.68,0,0,0,110.4,101.92Z"/><line class="cls-4" x1="116.68" y1="131.06" x2="126.8" y2="133.4"/><path class="cls-2" d="M116.53,131.72a.67.67,0,0,1-.51-.81.68.68,0,1,1,1.32.3A.67.67,0,0,1,116.53,131.72Z"/><path class="cls-2" d="M126.64,134.06a.68.68,0,0,0,.81-.51.67.67,0,1,0-1.31-.31A.68.68,0,0,0,126.64,134.06Z"/><line class="cls-4" x1="101.22" y1="135.12" x2="116.68" y2="131.06"/><path class="cls-2" d="M101.39,135.78a.68.68,0,0,1-.34-1.31.68.68,0,1,1,.34,1.31Z"/><path class="cls-2" d="M116.85,131.72a.68.68,0,0,0,.48-.83.68.68,0,0,0-1.31.34A.69.69,0,0,0,116.85,131.72Z"/><line class="cls-4" x1="111.34" y1="125.98" x2="113.64" y2="115.16"/><path class="cls-2" d="M112,126.12a.67.67,0,0,1-.8.52.68.68,0,1,1,.8-.52Z"/><path class="cls-2" d="M114.3,115.3a.68.68,0,0,0-.52-.8.67.67,0,1,0-.28,1.32A.67.67,0,0,0,114.3,115.3Z"/><line class="cls-4" x1="103.68" y1="124.59" x2="111.34" y2="125.98"/><path class="cls-2" d="M103.56,125.26a.68.68,0,0,1-.54-.79.68.68,0,0,1,1.33.24A.69.69,0,0,1,103.56,125.26Z"/><path class="cls-2" d="M111.22,126.64a.68.68,0,0,0,.79-.54.69.69,0,0,0-.55-.79.68.68,0,0,0-.24,1.33Z"/><line class="cls-4" x1="108.3" y1="133.26" x2="103.68" y2="124.59"/><path class="cls-2" d="M108.89,133a.67.67,0,1,1-.91-.28A.67.67,0,0,1,108.89,133Z"/><path class="cls-2" d="M104.28,124.27a.68.68,0,1,0-.28.92A.67.67,0,0,0,104.28,124.27Z"/><line class="cls-4" x1="107.38" y1="143.22" x2="108.3" y2="133.26"/><path class="cls-2" d="M108.05,143.28a.68.68,0,0,1-1.35-.13.69.69,0,0,1,.74-.61A.68.68,0,0,1,108.05,143.28Z"/><path class="cls-2" d="M109,133.33a.68.68,0,0,0-.61-.74.68.68,0,1,0-.13,1.35A.68.68,0,0,0,109,133.33Z"/><line class="cls-4" x1="118.78" y1="142.42" x2="107.38" y2="143.22"/><path class="cls-2" d="M118.73,141.74a.69.69,0,0,1,.72.63.68.68,0,0,1-1.35.1A.68.68,0,0,1,118.73,141.74Z"/><path class="cls-2" d="M107.33,142.54a.69.69,0,0,0-.63.72.68.68,0,1,0,.63-.72Z"/><line class="cls-4" x1="116.68" y1="131.06" x2="118.78" y2="142.42"/><path class="cls-2" d="M116,131.19a.68.68,0,0,1,.55-.79.66.66,0,0,1,.78.54.67.67,0,0,1-.54.79A.68.68,0,0,1,116,131.19Z"/><path class="cls-2" d="M118.11,142.54a.67.67,0,0,0,.79.54.66.66,0,0,0,.54-.78.69.69,0,0,0-.79-.55A.68.68,0,0,0,118.11,142.54Z"/><line class="cls-4" x1="111.34" y1="125.98" x2="116.68" y2="131.06"/><path class="cls-2" d="M110.88,126.47a.67.67,0,0,1,0-1,.68.68,0,0,1,1,0,.67.67,0,0,1,0,1A.68.68,0,0,1,110.88,126.47Z"/><path class="cls-2" d="M116.21,131.55a.68.68,0,0,0,.94-1,.69.69,0,0,0-1,0A.67.67,0,0,0,116.21,131.55Z"/><line class="cls-4" x1="103.68" y1="138.36" x2="108.3" y2="133.26"/><path class="cls-2" d="M104.19,138.81a.68.68,0,0,1-1,.05.67.67,0,0,1,0-1,.68.68,0,0,1,1,0A.67.67,0,0,1,104.19,138.81Z"/><path class="cls-2" d="M108.8,133.72a.68.68,0,0,0,0-1,.67.67,0,0,0-1,.05.68.68,0,1,0,1,.91Z"/><line class="cls-4" x1="124.75" y1="70.15" x2="119.32" y2="65.73"/><path class="cls-2" d="M125.18,69.63a.67.67,0,0,1,.09,1,.68.68,0,0,1-1,.1.69.69,0,0,1-.1-1A.68.68,0,0,1,125.18,69.63Z"/><path class="cls-2" d="M119.75,65.2a.68.68,0,0,0-1,.1.68.68,0,0,0,1,.86A.69.69,0,0,0,119.75,65.2Z"/><line class="cls-4" x1="130.63" y1="72.48" x2="124.75" y2="70.15"/><path class="cls-2" d="M130.88,71.85a.67.67,0,0,1,.38.88.69.69,0,0,1-.88.38.68.68,0,1,1,.5-1.26Z"/><path class="cls-2" d="M125,69.52a.69.69,0,0,0-.88.38.68.68,0,1,0,1.26.5A.68.68,0,0,0,125,69.52Z"/><line class="cls-4" x1="128.99" y1="78.22" x2="130.63" y2="72.48"/><path class="cls-2" d="M129.64,78.41a.68.68,0,0,1-1.3-.37.68.68,0,1,1,1.3.37Z"/><path class="cls-2" d="M131.28,72.66a.68.68,0,0,0-1.3-.37.68.68,0,1,0,1.3.37Z"/><line class="cls-4" x1="133.37" y1="78.36" x2="128.99" y2="78.22"/><path class="cls-2" d="M133.39,77.68a.68.68,0,1,1-.7.66A.68.68,0,0,1,133.39,77.68Z"/><path class="cls-2" d="M129,77.55a.67.67,0,0,0-.7.65.68.68,0,0,0,.66.7.67.67,0,0,0,.69-.66A.66.66,0,0,0,129,77.55Z"/><line class="cls-4" x1="128.99" y1="84.79" x2="133.37" y2="78.36"/><path class="cls-2" d="M129.55,85.17a.68.68,0,1,1-.18-.94A.68.68,0,0,1,129.55,85.17Z"/><path class="cls-2" d="M133.93,78.74a.68.68,0,0,0-1.12-.76.68.68,0,1,0,1.12.76Z"/><line class="cls-4" x1="125.65" y1="82.6" x2="128.99" y2="84.79"/><path class="cls-2" d="M125.28,83.17a.68.68,0,1,1,.94-.2A.69.69,0,0,1,125.28,83.17Z"/><path class="cls-2" d="M128.62,85.36a.68.68,0,0,0,.74-1.14.69.69,0,0,0-.94.2A.68.68,0,0,0,128.62,85.36Z"/><line class="cls-4" x1="123.9" y1="87.66" x2="125.65" y2="82.6"/><path class="cls-2" d="M124.54,87.88a.68.68,0,1,1-.42-.86A.68.68,0,0,1,124.54,87.88Z"/><path class="cls-2" d="M126.29,82.82a.68.68,0,1,0-1.28-.44.68.68,0,0,0,1.28.44Z"/><line class="cls-4" x1="122.56" y1="84.24" x2="123.9" y2="87.66"/><path class="cls-2" d="M121.93,84.49a.68.68,0,1,1,.88.38A.67.67,0,0,1,121.93,84.49Z"/><path class="cls-2" d="M123.27,87.91a.67.67,0,0,0,.87.38.68.68,0,1,0-.49-1.26A.67.67,0,0,0,123.27,87.91Z"/><line class="cls-4" x1="109.19" y1="164.65" x2="121.51" y2="153.36"/><path class="cls-2" d="M109.65,165.15a.68.68,0,1,1,0-1A.69.69,0,0,1,109.65,165.15Z"/><path class="cls-2" d="M122,153.86a.68.68,0,1,0-1,0A.69.69,0,0,0,122,153.86Z"/><line class="cls-4" x1="111.23" y1="173.9" x2="109.19" y2="164.65"/><path class="cls-2" d="M111.89,173.76a.68.68,0,1,1-.81-.52A.68.68,0,0,1,111.89,173.76Z"/><path class="cls-2" d="M109.85,164.5a.68.68,0,1,0-.51.81A.68.68,0,0,0,109.85,164.5Z"/><line class="cls-4" x1="107.29" y1="174.47" x2="111.23" y2="173.9"/><path class="cls-2" d="M107.39,175.14a.68.68,0,1,1-.19-1.34.68.68,0,0,1,.19,1.34Z"/><path class="cls-2" d="M111.33,174.57a.67.67,0,0,0,.57-.76.68.68,0,1,0-1.34.19A.67.67,0,0,0,111.33,174.57Z"/><line class="cls-4" x1="109.19" y1="164.65" x2="107.29" y2="174.47"/><path class="cls-2" d="M108.53,164.52a.67.67,0,0,1,1.32.26.67.67,0,0,1-.79.53A.66.66,0,0,1,108.53,164.52Z"/><path class="cls-2" d="M106.63,174.34a.67.67,0,0,0,.54.79.66.66,0,0,0,.79-.53.67.67,0,0,0-.54-.79A.66.66,0,0,0,106.63,174.34Z"/><line class="cls-4" x1="104.12" y1="156.25" x2="109.19" y2="164.65"/><path class="cls-2" d="M103.54,156.6a.68.68,0,1,1,.93.23A.68.68,0,0,1,103.54,156.6Z"/><path class="cls-2" d="M108.61,165a.68.68,0,1,0,.23-.93A.68.68,0,0,0,108.61,165Z"/><line class="cls-4" x1="121.51" y1="153.36" x2="104.12" y2="156.25"/><path class="cls-2" d="M121.4,152.69a.68.68,0,1,1-.56.78A.68.68,0,0,1,121.4,152.69Z"/><path class="cls-2" d="M104,155.58a.67.67,0,0,0-.55.78.67.67,0,1,0,.55-.78Z"/><line class="cls-4" x1="126.34" y1="141.82" x2="121.51" y2="153.36"/><path class="cls-2" d="M125.72,141.56a.68.68,0,1,1,.36.89A.68.68,0,0,1,125.72,141.56Z"/><path class="cls-2" d="M120.89,153.1a.67.67,0,0,0,.36.89.69.69,0,0,0,.89-.37.68.68,0,0,0-1.25-.52Z"/><line class="cls-4" x1="143.76" y1="136.22" x2="126.34" y2="141.82"/><path class="cls-2" d="M143.55,135.57a.69.69,0,0,1,.86.44.68.68,0,0,1-.44.85.67.67,0,0,1-.85-.43A.68.68,0,0,1,143.55,135.57Z"/><path class="cls-2" d="M126.14,141.18a.68.68,0,1,0,.85.44A.68.68,0,0,0,126.14,141.18Z"/><line class="cls-4" x1="131.91" y1="127.65" x2="143.76" y2="136.22"/><path class="cls-2" d="M131.51,128.19a.67.67,0,1,1,.79-1.09.67.67,0,0,1-.79,1.09Z"/><path class="cls-2" d="M143.36,136.77a.68.68,0,0,0,.8-1.1.68.68,0,1,0-.8,1.1Z"/><line class="cls-4" x1="144.93" y1="117.95" x2="131.91" y2="127.65"/><path class="cls-2" d="M144.53,117.41a.68.68,0,1,1-.14,1A.67.67,0,0,1,144.53,117.41Z"/><path class="cls-2" d="M131.5,127.1a.68.68,0,1,0,.95.14A.68.68,0,0,0,131.5,127.1Z"/><line class="cls-4" x1="156.76" y1="114.33" x2="144.93" y2="117.95"/><path class="cls-2" d="M156.56,113.69a.67.67,0,1,1-.45.84A.67.67,0,0,1,156.56,113.69Z"/><path class="cls-2" d="M144.73,117.31a.67.67,0,0,0-.45.84.68.68,0,1,0,.45-.84Z"/><line class="cls-4" x1="131.91" y1="127.65" x2="156.76" y2="129.57"/><path class="cls-2" d="M131.85,128.32a.68.68,0,1,1,.73-.62A.67.67,0,0,1,131.85,128.32Z"/><path class="cls-2" d="M156.7,130.24a.68.68,0,1,0,.11-1.35.68.68,0,0,0-.73.63A.67.67,0,0,0,156.7,130.24Z"/><line class="cls-4" x1="104.12" y1="184.18" x2="107.29" y2="174.47"/><path class="cls-2" d="M104.77,184.39a.68.68,0,1,1-1.29-.42.68.68,0,0,1,1.29.42Z"/><path class="cls-2" d="M107.94,174.68a.68.68,0,1,0-.86.43A.67.67,0,0,0,107.94,174.68Z"/><line class="cls-4" x1="97.22" y1="186.75" x2="104.12" y2="184.18"/><path class="cls-2" d="M97.46,187.39a.68.68,0,1,1,.4-.87A.68.68,0,0,1,97.46,187.39Z"/><path class="cls-2" d="M104.36,184.82a.68.68,0,1,0-.87-.4A.68.68,0,0,0,104.36,184.82Z"/><line class="cls-4" x1="100.9" y1="192.11" x2="97.22" y2="186.75"/><path class="cls-2" d="M101.46,191.73a.68.68,0,0,1-.18.94.68.68,0,0,1-.94-.17.68.68,0,0,1,.18-.94A.67.67,0,0,1,101.46,191.73Z"/><path class="cls-2" d="M97.78,186.37a.67.67,0,0,0-.94-.17.67.67,0,0,0-.17.94.68.68,0,0,0,1.11-.77Z"/><line class="cls-4" x1="104.12" y1="184.18" x2="100.9" y2="192.11"/><path class="cls-2" d="M103.5,183.93a.66.66,0,0,1,.88-.37.67.67,0,0,1,.37.88.68.68,0,0,1-1.25-.51Z"/><path class="cls-2" d="M100.27,191.86a.68.68,0,1,0,.89-.37A.68.68,0,0,0,100.27,191.86Z"/><line class="cls-4" x1="98.9" y1="173.51" x2="104.12" y2="184.18"/><path class="cls-2" d="M98.3,173.81a.67.67,0,0,1,.31-.91.68.68,0,1,1-.31.91Z"/><path class="cls-2" d="M103.52,184.48a.68.68,0,1,0,1.21-.6.68.68,0,1,0-1.21.6Z"/><line class="cls-4" x1="107.29" y1="174.47" x2="98.9" y2="173.51"/><path class="cls-2" d="M107.37,173.8a.68.68,0,0,1,.6.75.67.67,0,0,1-.75.59.68.68,0,0,1-.6-.75A.68.68,0,0,1,107.37,173.8Z"/><path class="cls-2" d="M99,172.84a.67.67,0,0,0-.75.59.68.68,0,1,0,.75-.59Z"/><line class="cls-4" x1="102.99" y1="166.21" x2="107.29" y2="174.47"/><path class="cls-2" d="M102.39,166.52a.67.67,0,0,1,.28-.91.69.69,0,0,1,.92.29.68.68,0,0,1-1.2.62Z"/><path class="cls-2" d="M106.69,174.78a.69.69,0,0,0,.92.29.67.67,0,0,0,.28-.91.68.68,0,1,0-1.2.62Z"/><line class="cls-4" x1="103.03" y1="171.81" x2="102.99" y2="166.21"/><path class="cls-2" d="M103.7,171.8a.68.68,0,0,1-1.35,0,.68.68,0,0,1,1.35,0Z"/><path class="cls-2" d="M103.66,166.2a.68.68,0,1,0-.67.69A.68.68,0,0,0,103.66,166.2Z"/><line class="cls-4" x1="104.12" y1="184.18" x2="105.99" y2="191.99"/><path class="cls-2" d="M103.47,184.34a.67.67,0,1,1,.81.5A.67.67,0,0,1,103.47,184.34Z"/><path class="cls-2" d="M105.33,192.15a.67.67,0,1,0,1.31-.32.67.67,0,1,0-1.31.32Z"/><line class="cls-4" x1="101.85" y1="205.28" x2="101.85" y2="192.17"/><path class="cls-2" d="M102.53,205.28a.68.68,0,1,1-.68-.68A.67.67,0,0,1,102.53,205.28Z"/><path class="cls-2" d="M102.53,192.17a.68.68,0,1,0-.68.68A.67.67,0,0,0,102.53,192.17Z"/><line class="cls-4" x1="102.99" y1="192.17" x2="101.85" y2="205.28"/><path class="cls-2" d="M102.31,192.11a.68.68,0,0,1,1.35.12.68.68,0,1,1-1.35-.12Z"/><path class="cls-2" d="M101.18,205.22a.68.68,0,1,0,1.35.11.68.68,0,0,0-1.35-.11Z"/><line class="cls-5" x1="80.96" y1="22.06" x2="78.32" y2="40.4"/><path class="cls-2" d="M80.4,22a.57.57,0,1,1,.48.64A.57.57,0,0,1,80.4,22Z"/><path class="cls-2" d="M77.76,40.32a.57.57,0,1,0,.64-.48A.57.57,0,0,0,77.76,40.32Z"/><line class="cls-5" x1="84.74" y1="29.26" x2="80.96" y2="22.06"/><path class="cls-2" d="M85.24,29a.57.57,0,1,1-1,.53.57.57,0,0,1,1-.53Z"/><path class="cls-2" d="M81.46,21.8a.56.56,0,1,0-.24.76A.56.56,0,0,0,81.46,21.8Z"/><line class="cls-5" x1="89.23" y1="43.02" x2="84.74" y2="29.26"/><path class="cls-2" d="M89.77,42.85a.57.57,0,0,1-1.08.35.57.57,0,0,1,1.08-.35Z"/><path class="cls-2" d="M85.28,29.08a.57.57,0,0,0-1.08.35.57.57,0,0,0,1.08-.35Z"/><line class="cls-5" x1="108.15" y1="48.43" x2="89.23" y2="43.02"/><path class="cls-2" d="M108.3,47.89a.57.57,0,0,1,.39.7.57.57,0,0,1-1.09-.31A.57.57,0,0,1,108.3,47.89Z"/><path class="cls-2" d="M89.39,42.48a.57.57,0,0,0-.31,1.09.57.57,0,0,0,.31-1.09Z"/><line class="cls-5" x1="119" y1="7.23" x2="133.37" y2="13.02"/><path class="cls-2" d="M118.79,7.76a.57.57,0,0,1-.31-.74.56.56,0,0,1,.73-.31.57.57,0,0,1,.32.73A.58.58,0,0,1,118.79,7.76Z"/><path class="cls-2" d="M133.16,13.54a.58.58,0,0,0,.73-.31.57.57,0,0,0-.31-.74.57.57,0,1,0-.42,1Z"/><line class="cls-5" x1="113.4" y1="12.57" x2="119" y2="7.23"/><path class="cls-2" d="M113.78,13a.56.56,0,0,1-.79,0,.56.56,0,0,1,0-.8.55.55,0,0,1,.79,0A.56.56,0,0,1,113.78,13Z"/><path class="cls-2" d="M119.39,7.64a.56.56,0,0,0,0-.8.57.57,0,1,0-.82.78A.56.56,0,0,0,119.39,7.64Z"/><line class="cls-5" x1="127.89" y1="43.75" x2="127.07" y2="56.89"/><path class="cls-2" d="M127.33,43.72a.57.57,0,1,1,.53.6A.57.57,0,0,1,127.33,43.72Z"/><path class="cls-2" d="M126.51,56.86a.57.57,0,1,0,.6-.53A.57.57,0,0,0,126.51,56.86Z"/><line class="cls-5" x1="124.34" y1="35.98" x2="127.89" y2="43.75"/><path class="cls-2" d="M123.83,36.21a.56.56,0,1,1,.74.28A.56.56,0,0,1,123.83,36.21Z"/><path class="cls-2" d="M127.38,44a.57.57,0,1,0,.28-.75A.57.57,0,0,0,127.38,44Z"/><line class="cls-5" x1="118.58" y1="30.95" x2="124.34" y2="35.98"/><path class="cls-2" d="M118.21,31.38a.57.57,0,0,1,0-.8.56.56,0,0,1,.85.74A.57.57,0,0,1,118.21,31.38Z"/><path class="cls-2" d="M124,36.4a.56.56,0,0,0,.74-.85.57.57,0,0,0-.8.06A.56.56,0,0,0,124,36.4Z"/><line class="cls-5" x1="160.93" y1="65.09" x2="163.18" y2="55.48"/><path class="cls-2" d="M161.48,65.22a.56.56,0,0,1-.67.42.55.55,0,0,1-.42-.68.56.56,0,0,1,.67-.42A.57.57,0,0,1,161.48,65.22Z"/><path class="cls-2" d="M163.73,55.61a.56.56,0,0,0-.42-.68.58.58,0,0,0-.68.42.57.57,0,0,0,.43.68A.56.56,0,0,0,163.73,55.61Z"/><line class="cls-5" x1="120.51" y1="60.58" x2="150.4" y2="62.03"/><path class="cls-2" d="M120.48,61.14a.57.57,0,0,1-.54-.59.58.58,0,0,1,.6-.54.57.57,0,0,1-.06,1.13Z"/><path class="cls-2" d="M150.37,62.59a.56.56,0,0,0,.59-.53.57.57,0,0,0-.54-.59.56.56,0,0,0-.59.53A.57.57,0,0,0,150.37,62.59Z"/><line class="cls-5" x1="105.99" y1="54.05" x2="120.51" y2="60.58"/><path class="cls-2" d="M105.75,54.56a.56.56,0,0,1-.28-.74.56.56,0,1,1,.28.74Z"/><path class="cls-2" d="M120.28,61.09a.56.56,0,0,0,.74-.28.57.57,0,0,0-.28-.75.58.58,0,0,0-.75.29A.56.56,0,0,0,120.28,61.09Z"/><line class="cls-5" x1="81.3" y1="60.29" x2="105.99" y2="54.05"/><path class="cls-2" d="M81.44,60.83a.56.56,0,1,1-.28-1.09.57.57,0,0,1,.69.41A.56.56,0,0,1,81.44,60.83Z"/><path class="cls-2" d="M106.12,54.59a.55.55,0,0,0,.41-.68.56.56,0,0,0-.68-.41.57.57,0,0,0-.41.69A.55.55,0,0,0,106.12,54.59Z"/><line class="cls-5" x1="70.31" y1="59.25" x2="81.3" y2="60.29"/><path class="cls-2" d="M70.26,59.81a.56.56,0,1,1,.61-.51A.56.56,0,0,1,70.26,59.81Z"/><path class="cls-2" d="M81.25,60.85a.56.56,0,0,0,.61-.51.56.56,0,1,0-.61.51Z"/><line class="cls-5" x1="73.46" y1="52.42" x2="70.31" y2="59.25"/><path class="cls-2" d="M72.94,52.18a.57.57,0,1,1,.28.75A.57.57,0,0,1,72.94,52.18Z"/><path class="cls-2" d="M69.8,59a.56.56,0,0,0,.27.74.56.56,0,1,0,.47-1A.55.55,0,0,0,69.8,59Z"/><line class="cls-5" x1="83.13" y1="83.01" x2="86.45" y2="76.02"/><path class="cls-2" d="M83.64,83.25a.56.56,0,1,1-.27-.75A.57.57,0,0,1,83.64,83.25Z"/><path class="cls-2" d="M87,76.26a.56.56,0,1,0-.75.27A.57.57,0,0,0,87,76.26Z"/><line class="cls-5" x1="90.99" y1="95.86" x2="83.13" y2="83.01"/><path class="cls-2" d="M91.48,95.56a.58.58,0,0,1-.19.78.57.57,0,0,1-.78-.19.56.56,0,0,1,.19-.77A.58.58,0,0,1,91.48,95.56Z"/><path class="cls-2" d="M83.61,82.72a.57.57,0,0,0-.78-.19.56.56,0,1,0,.78.19Z"/><line class="cls-5" x1="84.25" y1="105.44" x2="90.99" y2="95.86"/><path class="cls-2" d="M84.71,105.77a.56.56,0,0,1-.78.13.55.55,0,0,1-.14-.78.56.56,0,0,1,.79-.14A.57.57,0,0,1,84.71,105.77Z"/><path class="cls-2" d="M91.46,96.18a.57.57,0,1,0-.79.14A.57.57,0,0,0,91.46,96.18Z"/><line class="cls-5" x1="95.43" y1="109.02" x2="84.25" y2="105.44"/><path class="cls-2" d="M95.6,108.48a.57.57,0,1,1-.71.37A.57.57,0,0,1,95.6,108.48Z"/><path class="cls-2" d="M84.42,104.9a.57.57,0,0,0-.34,1.08.57.57,0,0,0,.34-1.08Z"/><line class="cls-5" x1="99.77" y1="103.7" x2="95.43" y2="109.02"/><path class="cls-2" d="M99.33,103.34a.58.58,0,0,1,.8-.08.57.57,0,1,1-.8.08Z"/><path class="cls-2" d="M95,108.66a.57.57,0,1,0,.8-.08A.58.58,0,0,0,95,108.66Z"/><line class="cls-5" x1="109.84" y1="102.3" x2="99.77" y2="103.7"/><path class="cls-2" d="M109.76,101.74a.57.57,0,0,1,.64.48.57.57,0,1,1-1.12.16A.58.58,0,0,1,109.76,101.74Z"/><path class="cls-2" d="M99.69,103.14a.57.57,0,0,0,.16,1.12.57.57,0,1,0-.16-1.12Z"/><line class="cls-5" x1="90.88" y1="123.95" x2="94.54" y2="127.16"/><path class="cls-2" d="M90.5,124.38a.58.58,0,0,1,0-.8.57.57,0,0,1,.85.75A.58.58,0,0,1,90.5,124.38Z"/><path class="cls-2" d="M94.16,127.58a.58.58,0,0,0,.8,0,.57.57,0,0,0,0-.8.57.57,0,1,0-.75.85Z"/><line class="cls-5" x1="83.13" y1="123.43" x2="90.88" y2="123.95"/><path class="cls-2" d="M83.09,124a.57.57,0,1,1,.6-.53A.56.56,0,0,1,83.09,124Z"/><path class="cls-2" d="M90.84,124.52a.57.57,0,1,0-.53-.6A.57.57,0,0,0,90.84,124.52Z"/><line class="cls-5" x1="85.63" y1="115.7" x2="83.13" y2="123.43"/><path class="cls-2" d="M85.09,115.53a.57.57,0,1,1,.37.71A.57.57,0,0,1,85.09,115.53Z"/><path class="cls-2" d="M82.59,123.26A.57.57,0,0,0,83,124a.58.58,0,0,0,.72-.36.57.57,0,0,0-1.08-.35Z"/><line class="cls-5" x1="98.62" y1="119.91" x2="85.63" y2="115.7"/><path class="cls-2" d="M98.8,119.37a.57.57,0,1,1-.71.36A.57.57,0,0,1,98.8,119.37Z"/><path class="cls-2" d="M85.8,115.16a.57.57,0,0,0-.35,1.08.58.58,0,0,0,.72-.37A.57.57,0,0,0,85.8,115.16Z"/><line class="cls-5" x1="97.28" y1="126.39" x2="98.62" y2="119.91"/><path class="cls-2" d="M97.83,126.5a.56.56,0,0,1-.67.44.57.57,0,0,1-.44-.67.58.58,0,0,1,.67-.44A.57.57,0,0,1,97.83,126.5Z"/><path class="cls-2" d="M99.18,120a.57.57,0,0,0-.44-.66.56.56,0,0,0-.67.43.56.56,0,0,0,.44.67A.57.57,0,0,0,99.18,120Z"/><line class="cls-5" x1="154.02" y1="101.54" x2="144.93" y2="117.95"/><path class="cls-2" d="M153.52,101.27a.57.57,0,1,1,.22.77A.57.57,0,0,1,153.52,101.27Z"/><path class="cls-2" d="M144.44,117.68a.56.56,0,1,0,1,.55.57.57,0,0,0-.22-.77A.56.56,0,0,0,144.44,117.68Z"/><line class="cls-5" x1="142.58" y1="99.17" x2="154.02" y2="101.54"/><path class="cls-2" d="M142.47,99.72a.56.56,0,1,1,.66-.43A.55.55,0,0,1,142.47,99.72Z"/><path class="cls-2" d="M153.9,102.1a.57.57,0,0,0,.23-1.11.57.57,0,0,0-.23,1.11Z"/><line class="cls-5" x1="136.32" y1="95" x2="142.58" y2="99.17"/><path class="cls-2" d="M136,95.47a.58.58,0,0,1-.16-.79.57.57,0,0,1,.78-.15.56.56,0,0,1-.62.94Z"/><path class="cls-2" d="M142.27,99.64a.56.56,0,1,0-.16-.78A.56.56,0,0,0,142.27,99.64Z"/><line class="cls-5" x1="149.21" y1="90.26" x2="136.32" y2="95"/><path class="cls-2" d="M149,89.73a.57.57,0,0,1,.72.34.56.56,0,1,1-1.05.39A.57.57,0,0,1,149,89.73Z"/><path class="cls-2" d="M136.13,94.47a.56.56,0,0,0-.34.72.57.57,0,0,0,.72.34.56.56,0,1,0-.38-1.06Z"/><line class="cls-5" x1="154.02" y1="101.54" x2="149.21" y2="90.26"/><path class="cls-2" d="M154.54,101.32a.57.57,0,0,1-.3.74.56.56,0,1,1-.44-1A.56.56,0,0,1,154.54,101.32Z"/><path class="cls-2" d="M149.73,90a.56.56,0,1,0-.29.74A.56.56,0,0,0,149.73,90Z"/><line class="cls-5" x1="136.32" y1="95" x2="154.02" y2="101.54"/><path class="cls-2" d="M136.12,95.53a.57.57,0,0,1,.4-1.06.56.56,0,0,1,.33.72A.57.57,0,0,1,136.12,95.53Z"/><path class="cls-2" d="M153.82,102.07a.56.56,0,1,0,.39-1,.56.56,0,1,0-.39,1Z"/><line class="cls-5" x1="137.2" y1="81.23" x2="136.32" y2="95"/><path class="cls-2" d="M136.63,81.2a.56.56,0,0,1,.6-.53.57.57,0,0,1,.53.6.57.57,0,0,1-1.13-.07Z"/><path class="cls-2" d="M135.76,95a.56.56,0,1,0,.6-.53A.57.57,0,0,0,135.76,95Z"/><line class="cls-5" x1="122.7" y1="98.47" x2="116.68" y2="112.28"/><path class="cls-2" d="M122.18,98.24a.56.56,0,0,1,.74-.29.56.56,0,1,1-.45,1A.57.57,0,0,1,122.18,98.24Z"/><path class="cls-2" d="M116.16,112.06a.57.57,0,0,0,.29.74.57.57,0,1,0,.45-1A.57.57,0,0,0,116.16,112.06Z"/><line class="cls-5" x1="111.23" y1="112.69" x2="103.68" y2="124.59"/><path class="cls-2" d="M110.75,112.39a.57.57,0,1,1,.18.78A.57.57,0,0,1,110.75,112.39Z"/><path class="cls-2" d="M103.21,124.29a.56.56,0,1,0,1,.6.55.55,0,0,0-.17-.77A.56.56,0,0,0,103.21,124.29Z"/><line class="cls-5" x1="116.68" y1="112.28" x2="111.23" y2="112.69"/><path class="cls-2" d="M116.64,111.72a.56.56,0,0,1,.08,1.12.56.56,0,1,1-.08-1.12Z"/><path class="cls-2" d="M111.19,112.13a.56.56,0,1,0,.6.52A.56.56,0,0,0,111.19,112.13Z"/><line class="cls-5" x1="116.68" y1="98.68" x2="116.68" y2="112.28"/><path class="cls-2" d="M116.11,98.68a.58.58,0,0,1,.57-.57.57.57,0,0,1,.56.57.56.56,0,0,1-.56.56A.57.57,0,0,1,116.11,98.68Z"/><path class="cls-2" d="M116.11,112.28a.57.57,0,0,0,.57.56.56.56,0,1,0,0-1.12A.57.57,0,0,0,116.11,112.28Z"/><line class="cls-5" x1="120.78" y1="89.16" x2="116.68" y2="98.68"/><path class="cls-2" d="M120.26,88.94a.57.57,0,0,1,.75-.29.56.56,0,1,1-.75.29Z"/><path class="cls-2" d="M116.16,98.45a.57.57,0,1,0,1,.45.56.56,0,0,0-.3-.74A.57.57,0,0,0,116.16,98.45Z"/><line class="cls-5" x1="116.68" y1="72.48" x2="120.78" y2="89.16"/><path class="cls-2" d="M116.13,72.61a.56.56,0,0,1,.41-.68.57.57,0,1,1-.41.68Z"/><path class="cls-2" d="M120.23,89.3a.57.57,0,0,0,1.1-.27.57.57,0,0,0-1.1.27Z"/><line class="cls-5" x1="108.3" y1="64.08" x2="116.68" y2="72.48"/><path class="cls-2" d="M107.9,64.48a.57.57,0,1,1,.8,0A.57.57,0,0,1,107.9,64.48Z"/><path class="cls-2" d="M116.28,72.88a.57.57,0,1,0,0-.8A.57.57,0,0,0,116.28,72.88Z"/><line class="cls-5" x1="92.33" y1="70.02" x2="108.3" y2="64.08"/><path class="cls-2" d="M92.53,70.54a.57.57,0,0,1-.73-.33.56.56,0,0,1,.33-.72.57.57,0,0,1,.73.33A.56.56,0,0,1,92.53,70.54Z"/><path class="cls-2" d="M108.49,64.61a.56.56,0,1,0-.39-1.06.57.57,0,0,0-.33.73A.56.56,0,0,0,108.49,64.61Z"/><line class="cls-5" x1="86.18" y1="61.14" x2="92.33" y2="70.02"/><path class="cls-2" d="M85.71,61.47a.57.57,0,1,1,.79.14A.57.57,0,0,1,85.71,61.47Z"/><path class="cls-2" d="M91.87,70.34a.56.56,0,1,0,.14-.79A.56.56,0,0,0,91.87,70.34Z"/><line class="cls-5" x1="103.68" y1="65.79" x2="86.18" y2="61.14"/><path class="cls-2" d="M103.83,65.25a.56.56,0,1,1-.69.4A.57.57,0,0,1,103.83,65.25Z"/><path class="cls-2" d="M86.32,60.6a.56.56,0,1,0,.4.69A.57.57,0,0,0,86.32,60.6Z"/><line class="cls-5" x1="116.68" y1="72.48" x2="103.68" y2="65.79"/><path class="cls-2" d="M116.94,72a.56.56,0,1,1-.52,1,.56.56,0,0,1,.52-1Z"/><path class="cls-2" d="M103.94,65.29a.57.57,0,1,0,.25.76A.56.56,0,0,0,103.94,65.29Z"/><line class="cls-5" x1="100.9" y1="177.59" x2="97.22" y2="186.75"/><path class="cls-2" d="M100.38,177.38a.56.56,0,0,1,1,.42.56.56,0,1,1-1-.42Z"/><path class="cls-2" d="M96.7,186.54a.57.57,0,1,0,.73-.31A.58.58,0,0,0,96.7,186.54Z"/><line class="cls-5" x1="107.29" y1="174.47" x2="100.9" y2="177.59"/><path class="cls-2" d="M107.05,174a.57.57,0,1,1-.26.76A.57.57,0,0,1,107.05,174Z"/><path class="cls-2" d="M100.65,177.09a.56.56,0,0,0-.26.75.57.57,0,0,0,.76.26.56.56,0,1,0-.5-1Z"/><line class="cls-5" x1="107.39" y1="161.67" x2="107.29" y2="174.47"/><path class="cls-2" d="M106.83,161.67a.57.57,0,0,1,1.13,0,.55.55,0,0,1-.57.55A.56.56,0,0,1,106.83,161.67Z"/><path class="cls-2" d="M106.73,174.47a.57.57,0,1,0,.57-.56A.56.56,0,0,0,106.73,174.47Z"/><line class="cls-5" x1="121.51" y1="153.36" x2="107.39" y2="161.67"/><path class="cls-2" d="M121.23,152.88a.56.56,0,1,1-.2.77A.56.56,0,0,1,121.23,152.88Z"/><path class="cls-2" d="M107.11,161.18a.57.57,0,1,0,.77.2A.58.58,0,0,0,107.11,161.18Z"/><line class="cls-5" x1="111.23" y1="149.9" x2="121.51" y2="153.36"/><path class="cls-2" d="M111.05,150.43a.56.56,0,0,1,.36-1.07.57.57,0,0,1,.35.72A.56.56,0,0,1,111.05,150.43Z"/><path class="cls-2" d="M121.33,153.9a.57.57,0,0,0,.72-.36.56.56,0,0,0-1.07-.36A.57.57,0,0,0,121.33,153.9Z"/><line class="cls-5" x1="126.34" y1="141.82" x2="111.23" y2="149.9"/><path class="cls-2" d="M126.08,141.33a.55.55,0,0,1,.76.23.56.56,0,1,1-1,.53A.55.55,0,0,1,126.08,141.33Z"/><path class="cls-2" d="M111,149.4a.57.57,0,0,0-.23.76.57.57,0,0,0,1-.53A.57.57,0,0,0,111,149.4Z"/><line class="cls-5" x1="131.91" y1="127.65" x2="126.34" y2="141.82"/><path class="cls-2" d="M131.38,127.44a.57.57,0,0,1,.73-.32.56.56,0,0,1,.32.73.56.56,0,1,1-1.05-.41Z"/><path class="cls-2" d="M125.82,141.62a.56.56,0,1,0,.73-.32A.56.56,0,0,0,125.82,141.62Z"/><line class="cls-5" x1="100.9" y1="192.11" x2="98.01" y2="212.85"/><path class="cls-2" d="M100.34,192a.58.58,0,0,1,.64-.49.57.57,0,0,1-.16,1.12A.56.56,0,0,1,100.34,192Z"/><path class="cls-2" d="M97.45,212.77a.56.56,0,0,0,.48.63.56.56,0,1,0-.48-.63Z"/><line class="cls-5" x1="99.8" y1="217.93" x2="100.9" y2="192.11"/><path class="cls-2" d="M100.36,218a.56.56,0,1,1-.54-.59A.56.56,0,0,1,100.36,218Z"/><path class="cls-2" d="M101.46,192.14a.56.56,0,1,0-1.12,0,.57.57,0,0,0,.54.59A.56.56,0,0,0,101.46,192.14Z"/><line class="cls-5" x1="86.45" y1="109.82" x2="94.25" y2="118.49"/><path class="cls-2" d="M86,110.2a.57.57,0,1,1,.8,0A.57.57,0,0,1,86,110.2Z"/><path class="cls-2" d="M93.83,118.87a.56.56,0,0,0,.79,0,.58.58,0,0,0,0-.8.57.57,0,0,0-.84.76Z"/><line class="cls-5" x1="89.23" y1="107.04" x2="86.45" y2="109.82"/><path class="cls-2" d="M88.83,106.64a.57.57,0,0,1,.8,0,.56.56,0,0,1,0,.79.57.57,0,0,1-.8,0A.56.56,0,0,1,88.83,106.64Z"/><path class="cls-2" d="M86.05,109.42a.57.57,0,1,0,.8,0A.57.57,0,0,0,86.05,109.42Z"/><line class="cls-5" x1="90.99" y1="95.86" x2="89.23" y2="107.04"/><path class="cls-2" d="M90.44,95.77a.56.56,0,0,1,.64-.47.57.57,0,0,1,.47.65.58.58,0,0,1-.64.47A.57.57,0,0,1,90.44,95.77Z"/><path class="cls-2" d="M88.67,107a.57.57,0,0,0,1.12.17.57.57,0,0,0-1.12-.17Z"/></g></svg>