<svg xmlns="http://www.w3.org/2000/svg" xmlns:xlink="http://www.w3.org/1999/xlink" viewBox="0 0 612.06 612.06"><defs><style>.cls-1{fill:#00bbdb;}.cls-2{fill:#296daa;}.cls-3{fill:url(#linear-gradient);}.cls-4{fill:url(#linear-gradient-2);}</style><linearGradient id="linear-gradient" x1="510.91" y1="289.68" x2="312.16" y2="399" gradientUnits="userSpaceOnUse"><stop offset="0" stop-color="#00bbdb"/><stop offset="1"/></linearGradient><linearGradient id="linear-gradient-2" x1="242.17" y1="301.11" x2="27.69" y2="400.48" gradientUnits="userSpaceOnUse"><stop offset="0" stop-color="#296daa"/><stop offset="1"/></linearGradient></defs><title>logo</title><g id="Layer_1" data-name="Layer 1"><path class="cls-1" d="M455.62,90.08H294.36a7.21,7.21,0,0,0-5.63,11.7L346.8,171a18.73,18.73,0,0,0,14.64,7h96.5a57.24,57.24,0,0,1,57,53.15c2.34,33.6-24.84,61.18-58.52,61.18,0,0-99.38,0-99.42.06l-52.48,87.91,153.39-.05C538.65,380.26,604.19,314,603,233,601.86,153.36,535.31,90.08,455.62,90.08Z"/><path class="cls-2" d="M323.47,188.54c-18.57-59-74.14-98.46-136-98.46H17a7.91,7.91,0,0,0-6,13.09l58.66,67.71A20.72,20.72,0,0,0,85.26,178H185.7a57.24,57.24,0,0,1,57,53.15c2.34,33.6-24.84,61.18-58.52,61.18,0,0-52.69,0-65.39,0l-98,87.9H191.21C280.83,380.26,354.87,288.24,323.47,188.54Z"/><path class="cls-3" d="M515,232.25c1.69,33.1-25.25,60.09-58.56,60.09,0,0-99.38,0-99.42.06l-52.48,87.91,153.39-.05C538.65,380.26,604.19,314,603,233c0-.26,0-.52,0-.78Z"/><path class="cls-1" d="M304,380.31l99.51,133.2a21.11,21.11,0,0,0,16.9,8.47h95.49a8.8,8.8,0,0,0,7-14.17L356.52,292.34Z"/><path class="cls-4" d="M242.76,231.84c1.92,33.29-25.1,60.5-58.55,60.5,0,0-52.69,0-65.39,0l-98,87.9H191.21c76.41,0,141.48-66.9,139.54-148.42Z"/><path class="cls-2" d="M20.79,380.31V511.74A10.24,10.24,0,0,0,31,522h77.56a10.23,10.23,0,0,0,10.23-10.24V292.34Z"/></g></svg>