<svg xmlns="http://www.w3.org/2000/svg" xmlns:xlink="http://www.w3.org/1999/xlink" viewBox="0 0 566.93 530.26"><defs><style>.cls-1{font-size:60.27px;fill:#fff;font-family:TitilliumWeb-SemiBold, Titillium Web;font-weight:600;}.cls-2{fill:#00bbdb;}.cls-3{fill:#296daa;}.cls-4{fill:url(#linear-gradient);}.cls-5{fill:url(#linear-gradient-2);}</style><linearGradient id="linear-gradient" x1="441.81" y1="190.58" x2="288.2" y2="275.07" gradientUnits="userSpaceOnUse"><stop offset="0" stop-color="#00bbdb"/><stop offset="1"/></linearGradient><linearGradient id="linear-gradient-2" x1="234.11" y1="199.41" x2="68.34" y2="276.22" gradientUnits="userSpaceOnUse"><stop offset="0" stop-color="#296daa"/><stop offset="1"/></linearGradient></defs><title>logo-white-text</title><g id="Layer_1" data-name="Layer 1"><text class="cls-1" transform="translate(56.6 475.86)">PR ENGINEERING</text><path class="cls-2" d="M399.08,36.31H274.44a5.57,5.57,0,0,0-4.35,9L315,98.82a14.47,14.47,0,0,0,11.31,5.45h74.59A44.24,44.24,0,0,1,445,145.35c1.81,26-19.2,47.28-45.23,47.28,0,0-76.81,0-76.84.05l-40.56,67.94,118.56,0A112.25,112.25,0,0,0,513,146.8C512.11,85.22,460.67,36.31,399.08,36.31Z"/><path class="cls-3" d="M296.94,112.41c-14.35-45.59-57.3-76.1-105.09-76.1H60a6.12,6.12,0,0,0-4.62,10.12l45.34,52.33a16,16,0,0,0,12.07,5.51h77.63a44.25,44.25,0,0,1,44.08,41.08c1.81,26-19.2,47.28-45.23,47.28l-50.54,0L63,260.6H194.72C264,260.59,321.21,189.46,296.94,112.41Z"/><path class="cls-4" d="M445,146.19c1.3,25.59-19.52,46.44-45.27,46.44,0,0-76.81,0-76.84.05l-40.56,67.94,118.56,0A112.25,112.25,0,0,0,513,146.8c0-.2,0-.4,0-.61Z"/><path class="cls-2" d="M281.92,260.62l76.92,103a16.31,16.31,0,0,0,13.06,6.55h73.8a6.79,6.79,0,0,0,5.38-10.95L322.49,192.63Z"/><path class="cls-5" d="M234.56,145.88c1.49,25.73-19.4,46.75-45.25,46.75l-50.54,0L63,260.6H194.72c59.06,0,109.35-51.71,107.85-114.71Z"/><path class="cls-3" d="M63,260.62V362.21a7.91,7.91,0,0,0,7.91,7.91h59.94a7.91,7.91,0,0,0,7.91-7.91V192.63Z"/></g></svg>